<svg width="104" height="104" viewBox="0 0 104 104" fill="none" xmlns="http://www.w3.org/2000/svg">
<g filter="url(#filter0_d_278_2227)">
<circle cx="52" cy="42" r="30" fill="url(#paint0_linear_278_2227)"/>
</g>
<path fill-rule="evenodd" clip-rule="evenodd" d="M52 36.4585C52.4833 36.4585 52.875 36.8502 52.875 37.3335V41.1252H56.6667C57.15 41.1252 57.5417 41.5169 57.5417 42.0002C57.5417 42.4834 57.15 42.8752 56.6667 42.8752H52.875V46.6668C52.875 47.1501 52.4833 47.5418 52 47.5418C51.5168 47.5418 51.125 47.1501 51.125 46.6668V42.8752H47.3334C46.8501 42.8752 46.4584 42.4834 46.4584 42.0002C46.4584 41.5169 46.8501 41.1252 47.3334 41.1252H51.125V37.3335C51.125 36.8502 51.5168 36.4585 52 36.4585Z" fill="#382666"/>
<path fill-rule="evenodd" clip-rule="evenodd" d="M52 36.4585C52.4833 36.4585 52.875 36.8502 52.875 37.3335V41.1252H56.6667C57.15 41.1252 57.5417 41.5169 57.5417 42.0002C57.5417 42.4834 57.15 42.8752 56.6667 42.8752H52.875V46.6668C52.875 47.1501 52.4833 47.5418 52 47.5418C51.5168 47.5418 51.125 47.1501 51.125 46.6668V42.8752H47.3334C46.8501 42.8752 46.4584 42.4834 46.4584 42.0002C46.4584 41.5169 46.8501 41.1252 47.3334 41.1252H51.125V37.3335C51.125 36.8502 51.5168 36.4585 52 36.4585Z" fill="black" fill-opacity="0.2"/>
<path fill-rule="evenodd" clip-rule="evenodd" d="M52 36.4585C52.4833 36.4585 52.875 36.8502 52.875 37.3335V41.1252H56.6667C57.15 41.1252 57.5417 41.5169 57.5417 42.0002C57.5417 42.4834 57.15 42.8752 56.6667 42.8752H52.875V46.6668C52.875 47.1501 52.4833 47.5418 52 47.5418C51.5168 47.5418 51.125 47.1501 51.125 46.6668V42.8752H47.3334C46.8501 42.8752 46.4584 42.4834 46.4584 42.0002C46.4584 41.5169 46.8501 41.1252 47.3334 41.1252H51.125V37.3335C51.125 36.8502 51.5168 36.4585 52 36.4585Z" fill="black" fill-opacity="0.2"/>
<path fill-rule="evenodd" clip-rule="evenodd" d="M52 36.4585C52.4833 36.4585 52.875 36.8502 52.875 37.3335V41.1252H56.6667C57.15 41.1252 57.5417 41.5169 57.5417 42.0002C57.5417 42.4834 57.15 42.8752 56.6667 42.8752H52.875V46.6668C52.875 47.1501 52.4833 47.5418 52 47.5418C51.5168 47.5418 51.125 47.1501 51.125 46.6668V42.8752H47.3334C46.8501 42.8752 46.4584 42.4834 46.4584 42.0002C46.4584 41.5169 46.8501 41.1252 47.3334 41.1252H51.125V37.3335C51.125 36.8502 51.5168 36.4585 52 36.4585Z" fill="black" fill-opacity="0.2"/>
<path fill-rule="evenodd" clip-rule="evenodd" d="M52 36.4585C52.4833 36.4585 52.875 36.8502 52.875 37.3335V41.1252H56.6667C57.15 41.1252 57.5417 41.5169 57.5417 42.0002C57.5417 42.4834 57.15 42.8752 56.6667 42.8752H52.875V46.6668C52.875 47.1501 52.4833 47.5418 52 47.5418C51.5168 47.5418 51.125 47.1501 51.125 46.6668V42.8752H47.3334C46.8501 42.8752 46.4584 42.4834 46.4584 42.0002C46.4584 41.5169 46.8501 41.1252 47.3334 41.1252H51.125V37.3335C51.125 36.8502 51.5168 36.4585 52 36.4585Z" fill="black" fill-opacity="0.2"/>
<path fill-rule="evenodd" clip-rule="evenodd" d="M52 36.4585C52.4833 36.4585 52.875 36.8502 52.875 37.3335V41.1252H56.6667C57.15 41.1252 57.5417 41.5169 57.5417 42.0002C57.5417 42.4834 57.15 42.8752 56.6667 42.8752H52.875V46.6668C52.875 47.1501 52.4833 47.5418 52 47.5418C51.5168 47.5418 51.125 47.1501 51.125 46.6668V42.8752H47.3334C46.8501 42.8752 46.4584 42.4834 46.4584 42.0002C46.4584 41.5169 46.8501 41.1252 47.3334 41.1252H51.125V37.3335C51.125 36.8502 51.5168 36.4585 52 36.4585Z" fill="black" fill-opacity="0.2"/>
<path fill-rule="evenodd" clip-rule="evenodd" d="M52 36.4585C52.4833 36.4585 52.875 36.8502 52.875 37.3335V41.1252H56.6667C57.15 41.1252 57.5417 41.5169 57.5417 42.0002C57.5417 42.4834 57.15 42.8752 56.6667 42.8752H52.875V46.6668C52.875 47.1501 52.4833 47.5418 52 47.5418C51.5168 47.5418 51.125 47.1501 51.125 46.6668V42.8752H47.3334C46.8501 42.8752 46.4584 42.4834 46.4584 42.0002C46.4584 41.5169 46.8501 41.1252 47.3334 41.1252H51.125V37.3335C51.125 36.8502 51.5168 36.4585 52 36.4585Z" fill="black" fill-opacity="0.2"/>
<path fill-rule="evenodd" clip-rule="evenodd" d="M52 36.4585C52.4833 36.4585 52.875 36.8502 52.875 37.3335V41.1252H56.6667C57.15 41.1252 57.5417 41.5169 57.5417 42.0002C57.5417 42.4834 57.15 42.8752 56.6667 42.8752H52.875V46.6668C52.875 47.1501 52.4833 47.5418 52 47.5418C51.5168 47.5418 51.125 47.1501 51.125 46.6668V42.8752H47.3334C46.8501 42.8752 46.4584 42.4834 46.4584 42.0002C46.4584 41.5169 46.8501 41.1252 47.3334 41.1252H51.125V37.3335C51.125 36.8502 51.5168 36.4585 52 36.4585Z" fill="black" fill-opacity="0.2"/>
<path fill-rule="evenodd" clip-rule="evenodd" d="M52 36.4585C52.4833 36.4585 52.875 36.8502 52.875 37.3335V41.1252H56.6667C57.15 41.1252 57.5417 41.5169 57.5417 42.0002C57.5417 42.4834 57.15 42.8752 56.6667 42.8752H52.875V46.6668C52.875 47.1501 52.4833 47.5418 52 47.5418C51.5168 47.5418 51.125 47.1501 51.125 46.6668V42.8752H47.3334C46.8501 42.8752 46.4584 42.4834 46.4584 42.0002C46.4584 41.5169 46.8501 41.1252 47.3334 41.1252H51.125V37.3335C51.125 36.8502 51.5168 36.4585 52 36.4585Z" fill="black" fill-opacity="0.2"/>
<path fill-rule="evenodd" clip-rule="evenodd" d="M52 36.4585C52.4833 36.4585 52.875 36.8502 52.875 37.3335V41.1252H56.6667C57.15 41.1252 57.5417 41.5169 57.5417 42.0002C57.5417 42.4834 57.15 42.8752 56.6667 42.8752H52.875V46.6668C52.875 47.1501 52.4833 47.5418 52 47.5418C51.5168 47.5418 51.125 47.1501 51.125 46.6668V42.8752H47.3334C46.8501 42.8752 46.4584 42.4834 46.4584 42.0002C46.4584 41.5169 46.8501 41.1252 47.3334 41.1252H51.125V37.3335C51.125 36.8502 51.5168 36.4585 52 36.4585Z" fill="black" fill-opacity="0.2"/>
<path fill-rule="evenodd" clip-rule="evenodd" d="M52 36.4585C52.4833 36.4585 52.875 36.8502 52.875 37.3335V41.1252H56.6667C57.15 41.1252 57.5417 41.5169 57.5417 42.0002C57.5417 42.4834 57.15 42.8752 56.6667 42.8752H52.875V46.6668C52.875 47.1501 52.4833 47.5418 52 47.5418C51.5168 47.5418 51.125 47.1501 51.125 46.6668V42.8752H47.3334C46.8501 42.8752 46.4584 42.4834 46.4584 42.0002C46.4584 41.5169 46.8501 41.1252 47.3334 41.1252H51.125V37.3335C51.125 36.8502 51.5168 36.4585 52 36.4585Z" fill="black" fill-opacity="0.2"/>
<path fill-rule="evenodd" clip-rule="evenodd" d="M52 36.4585C52.4833 36.4585 52.875 36.8502 52.875 37.3335V41.1252H56.6667C57.15 41.1252 57.5417 41.5169 57.5417 42.0002C57.5417 42.4834 57.15 42.8752 56.6667 42.8752H52.875V46.6668C52.875 47.1501 52.4833 47.5418 52 47.5418C51.5168 47.5418 51.125 47.1501 51.125 46.6668V42.8752H47.3334C46.8501 42.8752 46.4584 42.4834 46.4584 42.0002C46.4584 41.5169 46.8501 41.1252 47.3334 41.1252H51.125V37.3335C51.125 36.8502 51.5168 36.4585 52 36.4585Z" fill="black" fill-opacity="0.2"/>
<path fill-rule="evenodd" clip-rule="evenodd" d="M52 36.4585C52.4833 36.4585 52.875 36.8502 52.875 37.3335V41.1252H56.6667C57.15 41.1252 57.5417 41.5169 57.5417 42.0002C57.5417 42.4834 57.15 42.8752 56.6667 42.8752H52.875V46.6668C52.875 47.1501 52.4833 47.5418 52 47.5418C51.5168 47.5418 51.125 47.1501 51.125 46.6668V42.8752H47.3334C46.8501 42.8752 46.4584 42.4834 46.4584 42.0002C46.4584 41.5169 46.8501 41.1252 47.3334 41.1252H51.125V37.3335C51.125 36.8502 51.5168 36.4585 52 36.4585Z" fill="black" fill-opacity="0.2"/>
<path fill-rule="evenodd" clip-rule="evenodd" d="M52 36.4585C52.4833 36.4585 52.875 36.8502 52.875 37.3335V41.1252H56.6667C57.15 41.1252 57.5417 41.5169 57.5417 42.0002C57.5417 42.4834 57.15 42.8752 56.6667 42.8752H52.875V46.6668C52.875 47.1501 52.4833 47.5418 52 47.5418C51.5168 47.5418 51.125 47.1501 51.125 46.6668V42.8752H47.3334C46.8501 42.8752 46.4584 42.4834 46.4584 42.0002C46.4584 41.5169 46.8501 41.1252 47.3334 41.1252H51.125V37.3335C51.125 36.8502 51.5168 36.4585 52 36.4585Z" fill="black" fill-opacity="0.2"/>
<path fill-rule="evenodd" clip-rule="evenodd" d="M52 36.4585C52.4833 36.4585 52.875 36.8502 52.875 37.3335V41.1252H56.6667C57.15 41.1252 57.5417 41.5169 57.5417 42.0002C57.5417 42.4834 57.15 42.8752 56.6667 42.8752H52.875V46.6668C52.875 47.1501 52.4833 47.5418 52 47.5418C51.5168 47.5418 51.125 47.1501 51.125 46.6668V42.8752H47.3334C46.8501 42.8752 46.4584 42.4834 46.4584 42.0002C46.4584 41.5169 46.8501 41.1252 47.3334 41.1252H51.125V37.3335C51.125 36.8502 51.5168 36.4585 52 36.4585Z" fill="black" fill-opacity="0.2"/>
<path fill-rule="evenodd" clip-rule="evenodd" d="M52 36.4585C52.4833 36.4585 52.875 36.8502 52.875 37.3335V41.1252H56.6667C57.15 41.1252 57.5417 41.5169 57.5417 42.0002C57.5417 42.4834 57.15 42.8752 56.6667 42.8752H52.875V46.6668C52.875 47.1501 52.4833 47.5418 52 47.5418C51.5168 47.5418 51.125 47.1501 51.125 46.6668V42.8752H47.3334C46.8501 42.8752 46.4584 42.4834 46.4584 42.0002C46.4584 41.5169 46.8501 41.1252 47.3334 41.1252H51.125V37.3335C51.125 36.8502 51.5168 36.4585 52 36.4585Z" fill="white" fill-opacity="0.2"/>
<path fill-rule="evenodd" clip-rule="evenodd" d="M52 36.4585C52.4833 36.4585 52.875 36.8502 52.875 37.3335V41.1252H56.6667C57.15 41.1252 57.5417 41.5169 57.5417 42.0002C57.5417 42.4834 57.15 42.8752 56.6667 42.8752H52.875V46.6668C52.875 47.1501 52.4833 47.5418 52 47.5418C51.5168 47.5418 51.125 47.1501 51.125 46.6668V42.8752H47.3334C46.8501 42.8752 46.4584 42.4834 46.4584 42.0002C46.4584 41.5169 46.8501 41.1252 47.3334 41.1252H51.125V37.3335C51.125 36.8502 51.5168 36.4585 52 36.4585Z" fill="white"/>
<path fill-rule="evenodd" clip-rule="evenodd" d="M52 36.4585C52.4833 36.4585 52.875 36.8502 52.875 37.3335V41.1252H56.6667C57.15 41.1252 57.5417 41.5169 57.5417 42.0002C57.5417 42.4834 57.15 42.8752 56.6667 42.8752H52.875V46.6668C52.875 47.1501 52.4833 47.5418 52 47.5418C51.5168 47.5418 51.125 47.1501 51.125 46.6668V42.8752H47.3334C46.8501 42.8752 46.4584 42.4834 46.4584 42.0002C46.4584 41.5169 46.8501 41.1252 47.3334 41.1252H51.125V37.3335C51.125 36.8502 51.5168 36.4585 52 36.4585Z" fill="white"/>
<defs>
<filter id="filter0_d_278_2227" x="0" y="0" width="104" height="104" filterUnits="userSpaceOnUse" color-interpolation-filters="sRGB">
<feFlood flood-opacity="0" result="BackgroundImageFix"/>
<feColorMatrix in="SourceAlpha" type="matrix" values="0 0 0 0 0 0 0 0 0 0 0 0 0 0 0 0 0 0 127 0" result="hardAlpha"/>
<feOffset dy="10"/>
<feGaussianBlur stdDeviation="11"/>
<feColorMatrix type="matrix" values="0 0 0 0 0.772549 0 0 0 0 0.545098 0 0 0 0 0.94902 0 0 0 0.3 0"/>
<feBlend mode="normal" in2="BackgroundImageFix" result="effect1_dropShadow_278_2227"/>
<feBlend mode="normal" in="SourceGraphic" in2="effect1_dropShadow_278_2227" result="shape"/>
</filter>
<linearGradient id="paint0_linear_278_2227" x1="82" y1="72" x2="2.0324" y2="65.812" gradientUnits="userSpaceOnUse">
<stop stop-color="#C58BF2"/>
<stop offset="1" stop-color="#EEA4CE"/>
</linearGradient>
</defs>
</svg>
