<svg width="48" height="48" viewBox="0 0 48 48" fill="none" xmlns="http://www.w3.org/2000/svg">
<g opacity="0.2" filter="url(#filter0_d_430_13)">
<circle cx="24" cy="20" r="20" fill="#EB8F63"/>
<circle cx="24" cy="20" r="19.5" stroke="black"/>
</g>
<path fill-rule="evenodd" clip-rule="evenodd" d="M34.9834 25.8977C34.9834 27.0193 29.8854 28.249 24.4781 28.249C19.0708 28.249 14.6497 26.2999 14.6497 25.1783C14.6497 24.0567 19.7876 23.8679 25.1936 23.8679C30.5995 23.8679 34.9834 24.7761 34.9834 25.8977Z" fill="#E2CAB3"/>
<path fill-rule="evenodd" clip-rule="evenodd" d="M35.8202 27.0427C35.8354 27.6418 34.5329 28.1615 32.91 28.2026C31.2871 28.2436 29.9584 27.7922 29.9432 27.1918C29.9281 26.5913 31.2305 26.0729 32.8534 26.0319C34.4763 25.9909 35.805 26.4422 35.8202 27.0427Z" fill="#E2CAB3"/>
<path fill-rule="evenodd" clip-rule="evenodd" d="M12.191 22.7791C11.3263 24.8089 12.3788 25.8717 13.7807 26.0468C14.3332 26.1151 15.1619 25.7363 15.7751 25.4996C16.2741 25.2802 16.7478 25.0082 17.1881 24.6885C17.3966 24.4765 17.6425 24.1879 17.6922 23.8679C17.6989 23.7442 17.6722 23.621 17.6148 23.5109C17.6304 23.4647 17.6533 23.4214 17.6825 23.3823C17.7571 23.2455 17.5555 23.1402 17.6563 22.987C17.8165 22.7422 17.6052 22.4782 17.5016 22.2607C17.4671 22.1909 16.5762 21.4072 16.5348 21.332C15.7917 20.5537 15.5914 20.1871 14.5693 20.0271C13.2862 19.8247 12.0418 20.2883 12.191 22.7791Z" fill="#5F825C"/>
<g style="mix-blend-mode:multiply" opacity="0.4">
<path fill-rule="evenodd" clip-rule="evenodd" d="M12.6551 22.0295C12.8015 22.0473 12.8733 22.4399 12.8125 22.9104C12.7518 23.3809 12.586 23.742 12.4382 23.7242C12.2904 23.7065 12.2214 23.3139 12.2808 22.8434C12.3402 22.3729 12.5004 22.0104 12.6551 22.0295Z" fill="#5F825C"/>
</g>
<path fill-rule="evenodd" clip-rule="evenodd" d="M12.7932 24.2303C12.4797 24.3671 12.5087 24.7679 12.6358 25.0278C12.6389 25.0319 12.6412 25.0365 12.6427 25.0414C12.6725 25.1013 12.7096 25.1573 12.7532 25.2083C12.9071 25.4024 13.1195 25.5428 13.3595 25.6091C13.6606 25.6843 14.0059 25.6337 14.1799 25.3971C14.1842 25.3898 14.1911 25.3844 14.1993 25.382V25.3519C14.1606 25.1987 13.923 25.1686 13.796 25.1495C13.5197 25.1071 13.4382 24.8664 13.354 24.6434C13.2697 24.4205 13.0695 24.1045 12.7932 24.2303Z" fill="#8DB54F"/>
<g style="mix-blend-mode:multiply" opacity="0.4">
<path fill-rule="evenodd" clip-rule="evenodd" d="M15.6301 21.2158C15.3746 21.3526 15.6122 21.6617 15.7351 21.8081C16.0113 22.1473 16.3898 22.3907 16.6204 22.7765C16.8511 23.1622 16.55 23.7599 16.9187 24.0854C16.9365 24.1012 16.9573 24.1132 16.9798 24.1209C17.0023 24.1286 17.0262 24.1318 17.05 24.1303C17.0738 24.1287 17.097 24.1225 17.1183 24.112C17.1397 24.1015 17.1587 24.0869 17.1743 24.069C17.1904 24.0432 17.2025 24.015 17.2102 23.9856C17.2551 23.9288 17.2901 23.865 17.3138 23.7968C17.3759 23.5828 17.3677 23.3548 17.2903 23.1458C17.2323 22.9584 17.3621 22.7765 17.3055 22.5891C17.2795 22.5192 17.238 22.4561 17.1839 22.4044C17.1273 22.3393 17.0623 22.2818 16.9906 22.2334C16.8569 22.1234 16.7335 22.0016 16.6218 21.8696C16.488 21.7126 16.3411 21.5671 16.1826 21.4347C16.0155 21.2774 15.7986 21.1242 15.6301 21.2158Z" fill="#5F825C"/>
</g>
<path fill-rule="evenodd" clip-rule="evenodd" d="M12.4259 22.9051C12.2878 22.8819 12.2008 22.8271 11.7546 22.7177C11.3085 22.6083 11.082 22.5837 11.0129 22.5426C10.9439 22.5016 11.1373 22.2869 11.1373 22.2869C11.1373 22.2869 11.4715 22.4141 11.7464 22.5153C12.0212 22.6165 12.524 22.7505 12.524 22.7505C12.524 22.7505 12.6027 22.7943 12.5709 22.8654C12.5392 22.9366 12.4259 22.9051 12.4259 22.9051Z" fill="#300D33"/>
<path fill-rule="evenodd" clip-rule="evenodd" d="M35.859 18.9506C35.4847 19.0368 35.1684 19.2611 34.7789 19.2802C34.3645 19.3007 33.9502 19.1298 33.5455 19.0518C32.6657 18.8822 31.7651 18.7878 30.8757 18.6907C29.0801 18.4937 27.2611 18.4089 25.4587 18.2038C23.6562 17.9986 21.8676 17.7647 20.0638 17.7729C19.1948 17.7751 18.3275 17.8501 17.4713 17.9972C16.7655 18.119 16.0473 18.2612 15.4562 18.6811C15.0012 19.0126 14.6583 19.4728 14.4728 20.0011C14.2325 20.6439 15.5018 24.5804 15.6937 24.839C17.3622 27.0274 20.1632 27.5062 24.7722 27.4145C29.6975 27.316 31.6008 26.773 32.9958 25.5529C33.7458 24.8978 34.377 23.2126 34.4902 22.883C34.6822 22.3017 34.8949 21.7286 35.0938 21.15C35.2195 20.7834 35.3507 20.421 35.5081 20.0667C35.6747 19.7339 35.8133 19.388 35.9225 19.0327C35.9256 19.023 35.9264 19.0127 35.9246 19.0027C35.9228 18.9927 35.9187 18.9832 35.9124 18.9752C35.9062 18.9671 35.898 18.9606 35.8887 18.9564C35.8794 18.9521 35.8692 18.9501 35.859 18.9506Z" fill="#DA840D"/>
<path fill-rule="evenodd" clip-rule="evenodd" d="M35.1131 19.2201C34.4847 19.6578 33.58 19.6756 32.8438 19.8192C31.0262 20.1748 29.2141 20.4197 27.3592 20.3759C25.5443 20.3349 23.7281 20.1229 21.9201 19.9751C20.0721 19.8247 18.2199 19.7166 16.3664 19.8001C15.9569 19.8149 15.5507 19.8783 15.1565 19.9888C14.9548 20.0463 14.6537 20.1256 14.5529 20.3308C14.528 20.384 14.5144 20.4417 14.5128 20.5004V20.51C14.4217 20.8136 14.528 21.068 14.633 21.3375C14.6579 21.451 14.6855 21.5645 14.7117 21.6781C14.6648 21.6781 14.6579 21.7492 14.7117 21.7505H14.7269C14.7326 21.757 14.7396 21.7621 14.7475 21.7656C14.7554 21.7691 14.7639 21.7709 14.7725 21.7709C14.7811 21.7709 14.7896 21.7691 14.7975 21.7656C14.8054 21.7621 14.8124 21.757 14.8181 21.7505C15.144 21.7505 15.4672 21.6904 15.7946 21.6822C16.2863 21.6685 16.7034 21.9174 17.1329 22.1226C17.9036 22.4864 18.6315 22.9118 19.4119 23.2346C19.76 23.3789 20.1182 23.4982 20.4837 23.5916C20.848 23.6692 21.2171 23.7231 21.5886 23.753C21.9836 23.8036 22.3745 23.8898 22.7681 23.9431C23.209 23.9949 23.6535 24.009 24.0968 23.9855C25.8574 23.9548 27.6126 23.7833 29.3453 23.4726C30.9199 23.1799 32.4944 22.7395 33.8659 21.8983C34.4082 21.5718 34.8675 21.1263 35.2084 20.5961C35.3659 20.3513 35.4999 20.0873 35.6463 19.8356C35.754 19.6482 35.8838 19.4253 35.8645 19.2078C35.8327 18.7346 35.3065 19.0874 35.1131 19.2201Z" fill="#C66720"/>
<path opacity="0.4" fill-rule="evenodd" clip-rule="evenodd" d="M24.5222 26.4954C17.6853 27.4529 15.6384 24.7269 15.7006 24.8076C17.369 26.9961 20.1715 27.4748 24.7791 27.3831C29.7044 27.286 31.7057 26.7102 33.1021 25.4901C33.8092 24.8705 34.5924 22.5849 34.7484 22.1404C31.3273 24.928 30.3508 25.6748 24.5222 26.4954Z" fill="#C66720"/>
<path fill-rule="evenodd" clip-rule="evenodd" d="M36.9942 16.7212C36.9154 16.2411 36.1655 16.1741 35.7953 16.0373C35.468 15.9169 35.2428 15.6269 34.9763 15.4095C34.6886 15.174 34.3687 14.9801 34.026 14.8336C33.2457 14.4999 32.4639 14.2332 31.7526 13.7613C31.0979 13.3249 30.2941 13.2689 29.5427 13.1471C29.0782 13.0753 28.6236 12.9509 28.1878 12.7764C27.8006 12.5963 27.3916 12.4662 26.971 12.3894C26.5373 12.3319 26.0911 12.4304 25.6575 12.4482C25.1768 12.4673 24.7348 12.3114 24.2832 12.1746C23.9145 12.0424 23.5229 11.9843 23.1313 12.0036C22.7666 12.0337 22.4407 12.2252 22.1341 12.414C22.1264 12.4182 22.1199 12.4243 22.1153 12.4318C22.1107 12.4392 22.1081 12.4477 22.1078 12.4564C21.7611 12.6356 21.4283 12.8353 21.0802 13.0158C20.7898 13.1744 20.4783 13.2919 20.1548 13.3646C19.7584 13.4467 19.3855 13.381 18.9919 13.3304C18.3013 13.2415 17.648 13.2251 16.9933 13.4754C16.2143 13.7736 15.5942 14.3809 14.8221 14.7064C14.1578 14.98 13.579 15.3041 13.1647 15.9101C12.9922 16.1644 12.8747 16.4512 12.8194 16.7526C12.7683 17.0768 12.847 17.3709 12.9161 17.6882C13.0072 18.0985 12.9257 18.4268 12.807 18.8221C12.7057 19.0828 12.7132 19.3725 12.8277 19.6277C12.9354 19.8356 13.1647 19.9697 13.365 20.0764C13.5652 20.1831 14.0763 20.298 14.1191 20.5469C14.3014 21.6028 15.5003 21.1077 16.206 21.3676C16.5527 21.4975 16.8732 21.6945 17.2254 21.8217C17.63 21.968 18.0541 22.0775 18.4684 22.1883C19.2971 22.4098 20.0954 22.7053 20.9007 23.0089C21.2556 23.1457 21.5913 23.3153 21.9711 23.3837C22.3509 23.4521 22.7432 23.3906 23.1188 23.3577C23.8992 23.288 26.3674 23.4945 26.6947 23.329C27.1187 23.1225 27.5124 23.1416 27.9709 23.1799C28.3287 23.21 28.638 22.9474 28.9971 22.9187C29.4099 22.8784 29.817 22.7935 30.2112 22.6656C30.5628 22.5311 30.9209 22.4142 31.2844 22.3155C31.6987 22.2238 32.0606 21.927 32.4791 21.8709C33.2926 21.7601 33.8893 21.3088 34.5191 20.7849C35.0909 20.3103 36.4431 18.6744 36.5605 18.3502C36.6779 18.0261 36.7649 17.6663 36.8602 17.3312C36.9127 17.1438 37.0273 16.9209 36.9942 16.7212Z" fill="#F0A508"/>
<g opacity="0.5">
<path opacity="0.5" fill-rule="evenodd" clip-rule="evenodd" d="M24.2335 14.3098C24.1189 14.4589 23.9808 14.4999 23.9932 15.4273C24.0056 16.3547 24.0954 16.7048 23.7349 17.4079C23.3744 18.1109 22.6755 18.7934 22.4283 19.5416C22.1811 20.2898 21.8689 21.5181 22.1852 21.9954C22.5015 22.4728 23.6534 22.7081 25.2238 22.7505C26.7942 22.7929 28.5165 22.5385 29.4848 22.2403C30.453 21.9421 31.0123 21.819 31.2319 21.5564C31.4516 21.2938 30.3563 19.0506 29.5897 18.1752C28.8232 17.2998 28.4558 17.0098 27.5912 16.2849C26.7265 15.56 26.3481 15.2714 25.9213 14.6859C25.4945 14.1005 25.384 14.0691 24.9352 14.0759C24.6816 14.0752 24.435 14.1574 24.2335 14.3098Z" fill="#E2CAB3"/>
<path opacity="0.5" fill-rule="evenodd" clip-rule="evenodd" d="M15.51 20.2037C16.1191 18.8126 16.923 18.1793 17.1481 17.8648C17.7682 16.9989 18.1356 16.6201 18.9574 16.497C19.7792 16.3739 19.329 16.378 20.2626 16.248C21.1963 16.1181 21.9795 15.917 22.6107 15.4273C23.2419 14.9377 23.5678 14.5561 23.9034 14.4371C24.2391 14.3181 24.757 14.0527 24.3896 14.4275C24.0222 14.8023 24.5125 14.9445 23.8219 15.9608C23.1314 16.9771 22.8026 17.5023 22.5568 18.286C22.3109 19.0698 22.0568 21.5154 21.4947 21.7083C20.9325 21.9011 19.5914 21.9353 18.3456 21.4771C17.3789 21.1013 16.4324 20.6763 15.51 20.2037Z" fill="#E2CAB3"/>
<path opacity="0.5" fill-rule="evenodd" clip-rule="evenodd" d="M32.3467 20.8286C32.3467 20.8286 33.5013 20.4716 34.1643 19.9013C34.8272 19.3309 35.4902 18.7988 35.7002 18.0151C35.9101 17.2313 36.1477 17.0357 35.8908 16.8032C35.6339 16.5707 34.2596 15.3356 33.1284 14.7269C31.9972 14.1182 30.5594 13.7339 29.2804 13.4672C28.0015 13.2004 27.3233 13.3564 26.6562 13.3304C25.9891 13.3044 24.9325 14.0662 24.9477 14.0745C25.317 14.4262 25.7279 14.7325 26.1714 14.9868C26.7708 15.2986 28.1686 15.8266 28.8509 16.2178C29.5332 16.609 30.0746 17.4734 30.2321 17.8783C30.3895 18.2832 30.6105 18.409 30.8356 19.1845C31.0608 19.9601 31.6851 21.2089 31.6851 21.2089L32.3467 20.8286Z" fill="#E2CAB3"/>
<path opacity="0.5" fill-rule="evenodd" clip-rule="evenodd" d="M13.629 16.1166C13.629 16.1166 13.0959 17.535 13.3721 18.2176C13.5637 18.6652 13.8247 19.0806 14.1456 19.4486C14.1456 19.4486 14.8362 20.1024 15.3072 19.4253C15.7781 18.7483 16.7988 17.1671 17.6096 16.557C18.4203 15.947 19.43 15.8157 20.1786 15.7268C20.9272 15.6379 22.6854 15.3383 23.1716 14.9458C23.6578 14.5532 24.9478 14.0745 24.9478 14.0745C24.3897 13.8208 23.8083 13.6206 23.2117 13.4768C22.3084 13.2716 20.8637 13.8201 19.691 13.5465C18.5184 13.273 17.3748 13.8898 16.0765 14.5464C15.2143 14.9953 14.3952 15.5209 13.629 16.1166Z" fill="#E2CAB3"/>
<path opacity="0.5" fill-rule="evenodd" clip-rule="evenodd" d="M21.3635 13.2128C21.3635 13.2128 22.5776 12.0789 23.4021 12.0994C24.4449 12.1268 24.7833 12.3538 25.2819 12.5097C25.8496 12.6848 26.0761 12.7546 25.9297 12.9803C25.7833 13.2059 25.0927 14.2113 25.0927 14.2113C25.0927 14.2113 23.4353 13.4056 22.8276 13.3126C22.3428 13.2426 21.8534 13.2092 21.3635 13.2128Z" fill="#E2CAB3"/>
</g>
<path opacity="0.4" fill-rule="evenodd" clip-rule="evenodd" d="M33.3037 14.4684C32.9763 14.3316 32.6476 14.2181 32.3258 14.0663C31.9489 13.8747 31.5616 13.7039 31.1656 13.5547C30.8083 13.4462 30.4417 13.3706 30.0703 13.329C29.2306 13.1923 28.4599 12.849 27.6547 12.6027C27.193 12.4621 26.7105 12.4001 26.2279 12.4195C25.808 12.4468 25.3868 12.4468 24.9669 12.4195C24.5525 12.3757 24.1879 12.1856 23.7846 12.0802C23.2943 11.9517 22.8868 12.0802 22.4518 12.3114C21.8095 12.641 21.1686 13.0432 20.4725 13.2538C20.1007 13.3739 19.7117 13.433 19.3206 13.4289C18.9063 13.4152 18.5112 13.3332 18.1038 13.3058C17.6549 13.2583 17.2018 13.34 16.7986 13.5411C16.4926 13.7017 16.2042 13.8933 15.9381 14.1128C15.9367 14.1369 15.9367 14.1611 15.9381 14.1853C15.8578 14.4177 15.8291 14.6645 15.8539 14.9089C15.866 15.1582 15.932 15.4021 16.0473 15.6241C16.1626 15.8462 16.3246 16.0411 16.5224 16.196C16.8096 16.4367 17.1107 16.6213 17.3511 16.9099C17.5914 17.1985 17.7654 17.4995 18.0416 17.7306C18.4919 18.1109 19.09 18.141 19.6562 18.141C19.9546 18.141 20.2515 18.1259 20.5485 18.141C20.9561 18.1835 21.3568 18.2753 21.7418 18.4145C22.5374 18.6607 23.3178 19.0013 24.1396 19.1613C24.9614 19.3214 25.7763 19.1285 26.5746 18.9165C27.3729 18.7045 28.1602 18.5622 28.9419 18.3571C29.6487 18.185 30.3195 17.8915 30.9239 17.4899C31.5689 17.0259 32.1522 16.4831 32.66 15.8745C32.8548 15.6502 33.0399 15.4177 33.2319 15.1906C33.4026 15.0195 33.5168 14.801 33.5592 14.5642C33.4725 14.5365 33.3872 14.5046 33.3037 14.4684Z" fill="#E2CAB3"/>
<path fill-rule="evenodd" clip-rule="evenodd" d="M22.2833 15.4082C22.2198 15.4219 22.1563 15.4328 22.0969 15.441H22.0775C21.6439 15.5245 21.2143 15.6284 20.7682 15.5942C20.4671 15.5723 19.2903 15.6038 19.5666 16.1413C19.5698 16.1506 19.5698 16.1608 19.5666 16.1701C19.8096 16.3233 20.3497 16.2603 20.5334 16.2467C20.6891 16.2361 20.8438 16.2137 20.9961 16.1796C21.4293 16.0095 21.8413 15.7906 22.2239 15.5272C22.2487 15.4901 22.2686 15.4502 22.2833 15.4082Z" fill="#C66720"/>
<path fill-rule="evenodd" clip-rule="evenodd" d="M23.996 16.5106C24.0245 16.2242 24.0143 15.9353 23.9656 15.6516C23.7811 16.0857 23.5446 16.4962 23.2612 16.8744C23.0955 17.081 22.8759 17.2601 22.7419 17.4899C22.6701 17.613 22.5706 17.7963 22.6231 17.9468C22.706 18.1834 22.8524 18.182 23.0085 18.1506C23.2764 17.9864 23.5222 17.6035 23.6548 17.4065C23.7775 17.224 23.8772 17.0275 23.9518 16.8211C23.967 16.7185 23.9808 16.6159 23.996 16.5106Z" fill="#C66720"/>
<path fill-rule="evenodd" clip-rule="evenodd" d="M28.4117 15.6899C28.0878 15.5593 27.7573 15.4456 27.4214 15.3493C27.2163 15.2965 27.0158 15.2274 26.8219 15.1428C26.6731 15.0543 26.5049 15.0027 26.3316 14.9923C26.3211 14.9916 26.3107 14.9936 26.3012 14.9982C26.2918 15.0027 26.2837 15.0095 26.2777 15.0181C26.2717 15.0266 26.2681 15.0365 26.2671 15.0469C26.2661 15.0572 26.2679 15.0676 26.2722 15.0771C26.2859 15.1206 26.313 15.1589 26.3496 15.1865C26.5555 15.4718 26.7837 15.7407 27.0319 15.9908C27.2542 16.2397 27.4462 16.5078 27.6948 16.739C28.0318 17.0604 28.6409 17.256 28.9862 16.8129C29.3674 16.3191 28.8481 15.8718 28.4117 15.6899Z" fill="#C66720"/>
<path fill-rule="evenodd" clip-rule="evenodd" d="M27.0194 13.2662C26.902 13.0159 26.5208 13.0227 26.268 13.0815C26.2475 13.0842 26.2272 13.0883 26.2072 13.0938C25.8574 13.272 25.5861 13.5714 25.4448 13.935C25.8592 13.8133 26.1644 13.5247 26.6023 13.4741C26.6727 13.4659 27.0995 13.4344 27.0194 13.2662Z" fill="#C66720"/>
<path fill-rule="evenodd" clip-rule="evenodd" d="M21.1742 13.7203C21.2297 13.7378 21.2873 13.748 21.3455 13.7504C21.4823 13.7272 21.6211 13.7181 21.7598 13.7231C21.8137 13.7204 21.8676 13.7204 21.9214 13.7231C22.1023 13.7302 22.2826 13.7476 22.4615 13.775L22.5319 13.7942C22.6303 13.8045 22.7289 13.7776 22.8082 13.719C22.4035 13.5425 21.2889 13.124 21.1369 13.6642C21.1348 13.6765 21.1375 13.6892 21.1444 13.6996C21.1513 13.71 21.162 13.7174 21.1742 13.7203Z" fill="#C66720"/>
<path fill-rule="evenodd" clip-rule="evenodd" d="M13.5986 19.64C13.5663 19.7111 13.5431 19.7861 13.5296 19.8629C13.5089 19.9202 13.4968 19.9801 13.4937 20.0408C13.4943 20.0446 13.4959 20.0482 13.4982 20.0513C13.5005 20.0544 13.5035 20.0569 13.507 20.0587C13.5105 20.0604 13.5144 20.0613 13.5183 20.0613C13.5222 20.0612 13.5261 20.0603 13.5296 20.0585C13.571 20.0353 13.5724 19.9655 13.5793 19.9218C13.5918 19.8288 13.6131 19.7372 13.6428 19.6482C13.6539 19.6277 13.6111 19.614 13.5986 19.64Z" fill="#C66720"/>
<path fill-rule="evenodd" clip-rule="evenodd" d="M13.8582 19.8521C13.8229 19.9199 13.7974 19.9922 13.7822 20.0669C13.7712 20.1066 13.7394 20.1695 13.7519 20.2037C13.7526 20.2081 13.7548 20.2122 13.758 20.2154C13.7612 20.2185 13.7653 20.2207 13.7698 20.2214C13.8223 20.2214 13.8278 20.1531 13.8361 20.1161C13.8555 20.0354 13.872 19.952 13.8996 19.8727C13.9093 19.8494 13.872 19.8275 13.8582 19.8521Z" fill="#C66720"/>
<path fill-rule="evenodd" clip-rule="evenodd" d="M15.1068 20.785C15.0944 20.9218 15.0502 21.0586 15.0515 21.2035C15.0515 21.2446 15.1165 21.2514 15.1178 21.2035C15.1387 21.0625 15.1521 20.9205 15.1579 20.7782C15.1565 20.7508 15.1096 20.7576 15.1068 20.785Z" fill="#C66720"/>
<path fill-rule="evenodd" clip-rule="evenodd" d="M15.4494 20.856C15.4042 20.9638 15.3825 21.0798 15.3858 21.1965C15.3858 21.2403 15.4563 21.2485 15.4576 21.1965C15.4617 21.0836 15.4742 20.9712 15.4949 20.8601C15.5005 20.8382 15.459 20.8313 15.4494 20.856Z" fill="#C66720"/>
<path fill-rule="evenodd" clip-rule="evenodd" d="M21.0307 22.7231C21.0098 22.7746 20.995 22.8283 20.9865 22.8831C20.9735 22.9322 20.9679 22.9829 20.9699 23.0335C20.9717 23.039 20.9752 23.0438 20.9799 23.0472C20.9846 23.0505 20.9903 23.0524 20.9961 23.0524C21.0019 23.0524 21.0076 23.0505 21.0123 23.0472C21.017 23.0438 21.0206 23.039 21.0224 23.0335C21.0341 22.9889 21.0401 22.9429 21.0403 22.8968C21.0486 22.8393 21.0514 22.7819 21.0624 22.7244C21.0652 22.7121 21.0376 22.708 21.0307 22.7231Z" fill="#C66720"/>
<path fill-rule="evenodd" clip-rule="evenodd" d="M21.4228 22.771C21.4012 22.8401 21.3864 22.9111 21.3786 22.983C21.3631 23.0433 21.3585 23.1058 21.3648 23.1677C21.367 23.173 21.3707 23.1776 21.3755 23.1808C21.3803 23.184 21.3859 23.1857 21.3917 23.1857C21.3975 23.1857 21.4032 23.184 21.408 23.1808C21.4128 23.1776 21.4165 23.173 21.4187 23.1677C21.4334 23.1138 21.4399 23.058 21.438 23.0022C21.438 22.9256 21.4504 22.849 21.4574 22.7738C21.4566 22.7699 21.4546 22.7664 21.4517 22.7638C21.4488 22.7612 21.4451 22.7596 21.4411 22.7593C21.4372 22.759 21.4333 22.76 21.43 22.7621C21.4267 22.7642 21.4242 22.7673 21.4228 22.771Z" fill="#C66720"/>
<path fill-rule="evenodd" clip-rule="evenodd" d="M22.9822 23.0049C22.9822 22.983 22.956 22.9638 22.945 22.9843C22.9094 23.052 22.8905 23.1269 22.8897 23.2032C22.8897 23.2415 22.88 23.34 22.9284 23.3495C22.9315 23.3506 22.9347 23.3511 22.938 23.3509C22.9413 23.3508 22.9445 23.3499 22.9474 23.3485C22.9504 23.3472 22.953 23.3452 22.9552 23.3428C22.9574 23.3404 22.9591 23.3376 22.9601 23.3345C22.9624 23.2919 22.9591 23.2491 22.9505 23.2073C22.9499 23.1386 22.9606 23.0702 22.9822 23.0049Z" fill="#C66720"/>
<path fill-rule="evenodd" clip-rule="evenodd" d="M23.3704 22.9913C23.3695 22.9882 23.3675 22.9855 23.3649 22.9836C23.3623 22.9817 23.3592 22.9807 23.3559 22.9807C23.3527 22.9807 23.3495 22.9817 23.3469 22.9836C23.3443 22.9855 23.3424 22.9882 23.3414 22.9913C23.3109 23.1082 23.2988 23.2291 23.3055 23.3496C23.3055 23.3866 23.3649 23.3907 23.3635 23.3496C23.357 23.2302 23.3593 23.1104 23.3704 22.9913Z" fill="#C66720"/>
<path fill-rule="evenodd" clip-rule="evenodd" d="M23.7957 23.0337C23.7957 23.0289 23.7938 23.0244 23.7905 23.0211C23.7871 23.0177 23.7825 23.0159 23.7778 23.0159C23.773 23.0159 23.7684 23.0177 23.7651 23.0211C23.7617 23.0244 23.7598 23.0289 23.7598 23.0337C23.7543 23.0884 23.7501 23.1431 23.7474 23.1978C23.7474 23.2375 23.7198 23.2894 23.7474 23.3236C23.7496 23.3253 23.7522 23.3262 23.755 23.3262C23.7577 23.3262 23.7604 23.3253 23.7626 23.3236C23.8095 23.3236 23.8068 23.2484 23.8095 23.2128C23.8121 23.1528 23.8074 23.0926 23.7957 23.0337Z" fill="#C66720"/>
<path fill-rule="evenodd" clip-rule="evenodd" d="M31.3619 22.1786C31.3619 22.1868 31.3619 22.1649 31.3619 22.1622C31.3536 22.1426 31.3466 22.1225 31.3412 22.102C31.3274 22.0487 31.3246 21.9912 31.308 21.9379C31.308 21.9228 31.2777 21.9146 31.2735 21.9379C31.2694 21.9611 31.2735 22.262 31.3591 22.2114C31.3622 22.21 31.3648 22.2078 31.3666 22.205C31.3685 22.2023 31.3697 22.1991 31.37 22.1958C31.3702 22.1925 31.3697 22.1892 31.3682 22.1861C31.3668 22.1831 31.3646 22.1805 31.3619 22.1786Z" fill="#C66720"/>
<path fill-rule="evenodd" clip-rule="evenodd" d="M31.8536 22.0557C31.8262 21.9719 31.7929 21.8901 31.7541 21.8108C31.7523 21.8052 31.7483 21.8006 31.743 21.7979C31.7376 21.7952 31.7315 21.7947 31.7258 21.7965C31.7201 21.7983 31.7154 21.8023 31.7127 21.8075C31.71 21.8128 31.7095 21.8189 31.7113 21.8245C31.7319 21.9129 31.7587 21.9997 31.7914 22.0844C31.8066 22.1254 31.8701 22.0967 31.8536 22.0557Z" fill="#C66720"/>
<path fill-rule="evenodd" clip-rule="evenodd" d="M32.3258 21.8135C32.2778 21.745 32.2453 21.6671 32.2305 21.585C32.2292 21.58 32.2263 21.5755 32.2222 21.5723C32.2181 21.5691 32.213 21.5674 32.2077 21.5674C32.2025 21.5674 32.1974 21.5691 32.1933 21.5723C32.1891 21.5755 32.1862 21.58 32.1849 21.585C32.1786 21.6831 32.208 21.7802 32.2678 21.8586C32.294 21.9024 32.3534 21.8531 32.3258 21.8135Z" fill="#C66720"/>
<path fill-rule="evenodd" clip-rule="evenodd" d="M32.9143 21.7465C32.8678 21.7079 32.8298 21.6604 32.8025 21.6067C32.7752 21.5531 32.7592 21.4946 32.7554 21.4347C32.7557 21.4314 32.755 21.4281 32.7534 21.4252C32.7518 21.4223 32.7493 21.42 32.7463 21.4185C32.7433 21.417 32.74 21.4165 32.7367 21.4169C32.7334 21.4173 32.7303 21.4188 32.7278 21.421C32.6063 21.5058 32.7886 21.7246 32.8562 21.7889C32.8908 21.8272 32.9488 21.7807 32.9143 21.7465Z" fill="#C66720"/>
<path fill-rule="evenodd" clip-rule="evenodd" d="M33.5802 21.4347C33.5071 21.3122 33.4264 21.1943 33.3385 21.0818C33.3288 21.0654 33.297 21.0709 33.304 21.0928C33.3468 21.2295 33.4683 21.3266 33.5277 21.4593C33.5429 21.4963 33.5954 21.4716 33.5802 21.4347Z" fill="#C66720"/>
<path fill-rule="evenodd" clip-rule="evenodd" d="M34.1295 21.012C34.1171 20.986 34.084 20.971 34.0619 20.9546L33.9527 20.8752C33.9251 20.8547 33.8961 20.8356 33.8671 20.8164C33.8381 20.7973 33.8367 20.8082 33.8243 20.8014C33.8119 20.7945 33.8133 20.8014 33.8174 20.8014C33.8215 20.8014 33.8243 20.8233 33.834 20.8328C33.8584 20.8579 33.8842 20.8817 33.9113 20.904C33.9458 20.9341 33.9818 20.9614 34.0177 20.9888C34.0536 21.0161 34.0729 21.0394 34.1047 21.0394C34.1082 21.0394 34.1117 21.0387 34.1149 21.0373C34.1181 21.0359 34.121 21.0338 34.1233 21.0312C34.1257 21.0286 34.1274 21.0256 34.1285 21.0223C34.1296 21.019 34.1299 21.0155 34.1295 21.012Z" fill="#C66720"/>
<path fill-rule="evenodd" clip-rule="evenodd" d="M34.598 20.6699C34.5954 20.662 34.5907 20.6548 34.5844 20.6493C34.5781 20.6438 34.5704 20.64 34.5621 20.6385C34.5363 20.6266 34.5126 20.6109 34.4916 20.592C34.4429 20.5497 34.401 20.5004 34.3673 20.4456C34.3521 20.4223 34.3162 20.4456 34.3273 20.4716C34.3567 20.537 34.3995 20.5957 34.453 20.6439C34.4861 20.674 34.5483 20.7246 34.5911 20.6959C34.5948 20.6928 34.5975 20.6887 34.5987 20.684C34.5999 20.6793 34.5997 20.6744 34.598 20.6699Z" fill="#C66720"/>
<path fill-rule="evenodd" clip-rule="evenodd" d="M36.1574 18.911C36.151 18.9036 36.1432 18.8976 36.1344 18.8934C36.1256 18.8891 36.116 18.8867 36.1063 18.8864C36.0756 18.8811 36.0464 18.8695 36.0206 18.8522C35.9657 18.8146 35.9245 18.7603 35.9032 18.6976C35.9032 18.6771 35.8673 18.6894 35.8687 18.7086C35.8773 18.7824 35.9144 18.85 35.9723 18.8973C36.0123 18.9301 36.1104 18.9835 36.156 18.9356C36.1591 18.9323 36.1609 18.9281 36.1612 18.9236C36.1615 18.9191 36.1601 18.9146 36.1574 18.911Z" fill="#C66720"/>
<path fill-rule="evenodd" clip-rule="evenodd" d="M36.4624 18.5622C36.3457 18.5024 36.2475 18.4126 36.1779 18.3023C36.1655 18.2818 36.1296 18.3023 36.142 18.3201C36.2055 18.4463 36.3095 18.5483 36.4376 18.61C36.4652 18.621 36.49 18.5745 36.4624 18.5622Z" fill="#C66720"/>
<path fill-rule="evenodd" clip-rule="evenodd" d="M36.6517 18.0794C36.5988 18.0453 36.548 18.0078 36.4998 17.9673C36.4529 17.9249 36.4087 17.8825 36.3617 17.8442C36.3437 17.8305 36.3203 17.8565 36.3355 17.8743C36.4074 17.985 36.5074 18.0751 36.6255 18.1355C36.6327 18.1373 36.6402 18.1365 36.6469 18.1334C36.6536 18.1302 36.6589 18.1249 36.6621 18.1182C36.6652 18.1116 36.6658 18.1041 36.6639 18.097C36.6621 18.0899 36.6578 18.0837 36.6517 18.0794Z" fill="#C66720"/>
<path fill-rule="evenodd" clip-rule="evenodd" d="M13.256 19.279C13.1364 19.4413 13.0556 19.6284 13.0198 19.8262C13.0198 19.8426 13.0433 19.8439 13.0474 19.8262C13.0948 19.6384 13.1793 19.4617 13.296 19.3064C13.3126 19.2804 13.2725 19.2531 13.256 19.279Z" fill="#C66720"/>
<path fill-rule="evenodd" clip-rule="evenodd" d="M13.0407 19.1435C13.0103 19.1572 12.9979 19.1831 12.9772 19.2105C12.9564 19.2379 12.9205 19.2898 12.8957 19.3322C12.8604 19.3809 12.8416 19.4393 12.8418 19.4991C12.8418 19.5196 12.8736 19.5155 12.8749 19.4991C12.891 19.4372 12.9202 19.3794 12.9606 19.3295C12.9937 19.2789 13.0586 19.2214 13.0656 19.1613C13.0658 19.1582 13.0652 19.1552 13.0639 19.1524C13.0627 19.1496 13.0607 19.1472 13.0582 19.1455C13.0557 19.1437 13.0527 19.1426 13.0497 19.1422C13.0466 19.1419 13.0435 19.1423 13.0407 19.1435Z" fill="#C66720"/>
<path fill-rule="evenodd" clip-rule="evenodd" d="M13.4398 19.5882C13.4009 19.65 13.3694 19.7161 13.3458 19.7851C13.3151 19.8495 13.2928 19.9175 13.2795 19.9876C13.2795 20.0053 13.3058 20.0108 13.3099 19.9876C13.3276 19.9201 13.3531 19.855 13.3859 19.7933C13.4262 19.7312 13.4543 19.662 13.4688 19.5895C13.4689 19.5857 13.4676 19.582 13.465 19.5792C13.4624 19.5763 13.4588 19.5747 13.455 19.5745C13.4511 19.5743 13.4473 19.5756 13.4445 19.5782C13.4416 19.5808 13.4399 19.5843 13.4398 19.5882Z" fill="#C66720"/>
<path fill-rule="evenodd" clip-rule="evenodd" d="M14.1883 20.0669C14.0847 20.0984 14.0364 20.2338 14.0088 20.3281C14.0077 20.333 14.0085 20.3381 14.0109 20.3424C14.0134 20.3467 14.0173 20.3501 14.0221 20.3517C14.0268 20.3534 14.032 20.3533 14.0366 20.3515C14.0413 20.3497 14.0451 20.3462 14.0474 20.3418C14.064 20.294 14.0857 20.2482 14.1123 20.205C14.1386 20.164 14.1759 20.1298 14.2035 20.0888C14.209 20.0806 14.2007 20.0669 14.1883 20.0669Z" fill="#C66720"/>
<path fill-rule="evenodd" clip-rule="evenodd" d="M14.4176 20.4771C14.3638 20.4963 14.3348 20.5633 14.3099 20.6139C14.2817 20.6727 14.2689 20.7376 14.2726 20.8027C14.2726 20.8245 14.3058 20.8286 14.3071 20.8027C14.3118 20.7483 14.3258 20.6951 14.3486 20.6454C14.3707 20.592 14.4245 20.551 14.4397 20.4976C14.4408 20.4946 14.4409 20.4914 14.4402 20.4883C14.4394 20.4852 14.4378 20.4824 14.4354 20.4803C14.4331 20.4781 14.4302 20.4766 14.427 20.4761C14.4238 20.4755 14.4206 20.4759 14.4176 20.4771Z" fill="#C66720"/>
<path fill-rule="evenodd" clip-rule="evenodd" d="M14.6398 20.6208C14.5956 20.6907 14.5621 20.7668 14.5404 20.8465C14.5108 20.9208 14.4886 20.9977 14.4741 21.0763C14.473 21.081 14.4738 21.0859 14.4764 21.09C14.479 21.0941 14.4832 21.0971 14.4879 21.0981C14.4927 21.0992 14.4977 21.0984 14.5018 21.0958C14.506 21.0933 14.5089 21.0892 14.51 21.0845C14.5306 21.0083 14.5569 20.9338 14.5887 20.8615C14.6277 20.7889 14.6557 20.711 14.6716 20.6304C14.6722 20.6283 14.6725 20.6261 14.6723 20.624C14.672 20.6218 14.6714 20.6197 14.6704 20.6178C14.6694 20.6159 14.668 20.6142 14.6663 20.6129C14.6646 20.6115 14.6627 20.6105 14.6606 20.6098C14.6585 20.6092 14.6563 20.609 14.6541 20.6092C14.6519 20.6094 14.6498 20.61 14.6479 20.6111C14.646 20.6121 14.6443 20.6135 14.6429 20.6151C14.6415 20.6168 14.6405 20.6187 14.6398 20.6208Z" fill="#C66720"/>
<path fill-rule="evenodd" clip-rule="evenodd" d="M14.843 20.841C14.7949 20.9478 14.7749 21.065 14.785 21.1815C14.785 21.2048 14.8209 21.2075 14.8209 21.1815C14.8209 21.068 14.872 20.9559 14.8651 20.8437C14.8644 20.8415 14.863 20.8396 14.8612 20.8382C14.8594 20.8367 14.8572 20.8358 14.8549 20.8355C14.8526 20.8353 14.8503 20.8356 14.8482 20.8366C14.8461 20.8375 14.8443 20.8391 14.843 20.841Z" fill="#C66720"/>
<path fill-rule="evenodd" clip-rule="evenodd" d="M21.8247 22.8763C21.7759 23.0031 21.7574 23.1393 21.7709 23.2743C21.7709 23.2921 21.8026 23.2907 21.804 23.2743C21.804 23.2087 21.8137 23.1376 21.822 23.0787C21.8379 23.0138 21.8458 22.9472 21.8454 22.8804C21.8454 22.8667 21.8289 22.8681 21.8247 22.8763Z" fill="#C66720"/>
<path fill-rule="evenodd" clip-rule="evenodd" d="M22.1853 23.1388C22.1853 23.0758 22.2157 23.0198 22.2213 22.9568C22.2205 22.9547 22.2191 22.9529 22.2172 22.9517C22.2154 22.9504 22.2132 22.9497 22.2109 22.9497C22.2086 22.9497 22.2064 22.9504 22.2046 22.9517C22.2027 22.9529 22.2013 22.9547 22.2005 22.9568C22.1604 23.0209 22.137 23.0938 22.1324 23.169C22.1278 23.2442 22.1422 23.3194 22.1743 23.3877C22.184 23.4082 22.2116 23.3877 22.2047 23.374C22.18 23.2981 22.1734 23.2176 22.1853 23.1388Z" fill="#C66720"/>
<path fill-rule="evenodd" clip-rule="evenodd" d="M22.5169 23.1853C22.5211 23.1228 22.5156 23.06 22.5003 22.9992C22.4988 22.9964 22.4965 22.994 22.4937 22.9923C22.4909 22.9906 22.4877 22.9897 22.4844 22.9897C22.4811 22.9897 22.4779 22.9906 22.4751 22.9923C22.4723 22.994 22.4701 22.9964 22.4685 22.9992C22.4568 23.0612 22.4568 23.1247 22.4685 23.1866C22.4725 23.258 22.485 23.3288 22.5058 23.3973C22.5058 23.4205 22.5486 23.415 22.5431 23.3973C22.5285 23.3274 22.5198 23.2565 22.5169 23.1853Z" fill="#C66720"/>
<path fill-rule="evenodd" clip-rule="evenodd" d="M34.946 20.0667C34.946 20.0517 34.9253 20.0435 34.9184 20.0558C34.907 20.0736 34.9009 20.0942 34.9009 20.1153C34.9009 20.1364 34.907 20.157 34.9184 20.1748C34.9405 20.2172 34.9943 20.2801 35.0468 20.2733C35.051 20.2723 35.0546 20.2697 35.0569 20.2662C35.0593 20.2626 35.0601 20.2583 35.0593 20.2541C35.0455 20.1803 34.9281 20.1502 34.946 20.0667Z" fill="#C66720"/>
<path fill-rule="evenodd" clip-rule="evenodd" d="M35.4448 19.8466C35.431 19.8247 35.4185 19.822 35.3937 19.8138C35.3597 19.8032 35.3295 19.7833 35.3067 19.7563C35.2625 19.7047 35.2317 19.6432 35.2169 19.5771C35.2164 19.5744 35.2153 19.5719 35.2137 19.5696C35.2122 19.5673 35.2102 19.5653 35.2079 19.5638C35.2056 19.5623 35.203 19.5612 35.2003 19.5607C35.1976 19.5602 35.1948 19.5602 35.192 19.5607C35.1893 19.5612 35.1867 19.5623 35.1844 19.5638C35.1821 19.5654 35.1801 19.5673 35.1786 19.5696C35.1771 19.5719 35.176 19.5745 35.1755 19.5772C35.1749 19.5799 35.1749 19.5826 35.1755 19.5853C35.1879 19.6608 35.2187 19.7322 35.2652 19.7932C35.2998 19.8356 35.3909 19.9054 35.4462 19.8671C35.4481 19.864 35.449 19.8603 35.4488 19.8566C35.4485 19.8529 35.4471 19.8494 35.4448 19.8466Z" fill="#C66720"/>
<path fill-rule="evenodd" clip-rule="evenodd" d="M35.6793 19.3829C35.6365 19.3405 35.5909 19.2981 35.5508 19.2529C35.5343 19.2338 35.4997 19.2529 35.5122 19.2762C35.5434 19.3312 35.5815 19.3822 35.6254 19.428C35.6627 19.4663 35.7041 19.5279 35.7635 19.532C35.7664 19.5322 35.7694 19.5318 35.7721 19.5308C35.7748 19.5297 35.7772 19.5281 35.7792 19.526C35.7812 19.5239 35.7827 19.5214 35.7836 19.5186C35.7845 19.5159 35.7847 19.5129 35.7843 19.5101C35.776 19.4568 35.7207 19.4212 35.6793 19.3829Z" fill="#C66720"/>
<path opacity="0.4" fill-rule="evenodd" clip-rule="evenodd" d="M25.5858 14.6216C25.5858 14.9978 25.0043 15.3055 24.2847 15.3055C23.5651 15.3055 22.9836 15.0005 22.9836 14.6216C22.9836 14.2428 23.5651 13.9377 24.2847 13.9377C25.0043 13.9377 25.5858 14.2455 25.5858 14.6216Z" fill="#DA840D"/>
<path fill-rule="evenodd" clip-rule="evenodd" d="M32.7097 20.3404C29.7761 19.6032 28.5482 21.2213 28.5966 23.1252C28.6159 23.8693 29.301 24.8952 29.7513 25.6707C30.1507 26.2903 30.6165 26.8654 31.1407 27.3859C31.4722 27.6198 31.9142 27.8893 32.3575 27.8893C32.5275 27.8727 32.69 27.8118 32.8285 27.7128C32.8934 27.7254 32.9562 27.747 33.015 27.7771C33.2249 27.8482 33.3175 27.5583 33.5467 27.6609C33.9127 27.8264 34.229 27.4899 34.5025 27.3066C34.5909 27.2478 35.4693 25.8991 35.5646 25.828C36.4693 24.6777 36.9251 24.3385 36.9348 22.942C36.9458 21.1966 36.0605 19.6333 32.7097 20.3404Z" fill="#C73A54"/>
<g style="mix-blend-mode:multiply">
<path fill-rule="evenodd" clip-rule="evenodd" d="M33.8218 20.7972C33.8218 20.9969 33.3052 21.172 32.6574 21.1884C32.0097 21.2048 31.4807 21.0516 31.4751 20.856C31.4696 20.6604 31.9917 20.4772 32.6395 20.4648C33.2872 20.4525 33.8162 20.5975 33.8218 20.7972Z" fill="#ED6366"/>
</g>
<path fill-rule="evenodd" clip-rule="evenodd" d="M30.8619 21.443C30.6036 21.0559 30.0746 21.1694 29.7473 21.3964L29.7307 21.4088C29.6547 21.4596 29.586 21.5203 29.5263 21.5893C29.2935 21.834 29.1459 22.146 29.105 22.4797C29.065 22.8901 29.2045 23.3456 29.5622 23.5275C29.5723 23.5326 29.5805 23.5407 29.5857 23.5507C29.5994 23.5479 29.6128 23.5438 29.6257 23.5384C29.8274 23.4564 29.8177 23.1281 29.8191 22.9612C29.8191 22.5905 30.1299 22.4264 30.4144 22.2677C30.6754 22.1186 31.0884 21.7835 30.8619 21.443Z" fill="#ED6366"/>
<g style="mix-blend-mode:multiply">
<path fill-rule="evenodd" clip-rule="evenodd" d="M35.5356 24.6024C35.2925 24.2919 34.9279 24.6708 34.7539 24.8623C34.3492 25.3068 34.0964 25.8553 33.6185 26.241C33.1406 26.6267 32.2733 26.3463 31.9017 26.9071C31.8844 26.9341 31.8725 26.9643 31.867 26.9958C31.8614 27.0274 31.8621 27.0597 31.8692 27.091C31.8763 27.1222 31.8895 27.1518 31.9081 27.178C31.9267 27.2042 31.9504 27.2265 31.9777 27.2436C32.0163 27.2586 32.0567 27.2687 32.0979 27.2737C32.1838 27.3214 32.2771 27.3547 32.3741 27.3722C32.6771 27.4114 32.9848 27.3539 33.2525 27.208C33.4956 27.0931 33.7705 27.2272 34.0122 27.1136C34.1015 27.0654 34.1785 26.9976 34.2373 26.9153C34.3148 26.8263 34.3798 26.7274 34.4307 26.6212C34.5522 26.422 34.6909 26.2334 34.845 26.0577C35.0324 25.8471 35.2019 25.6216 35.3519 25.3834C35.5315 25.1276 35.6944 24.8075 35.5356 24.6024Z" fill="#ED6366"/>
</g>
<path fill-rule="evenodd" clip-rule="evenodd" d="M35.4585 17.7415C35.2955 17.6868 34.9958 17.933 34.8687 18.0082C34.5787 18.1806 34.2845 18.3543 34.0055 18.543C33.5817 18.8374 33.2305 19.2226 32.9779 19.6701C32.8726 19.8606 32.802 20.0681 32.7694 20.2829C32.7265 20.3956 32.7049 20.5153 32.7058 20.6358C32.7051 20.6442 32.706 20.6527 32.7086 20.6608C32.7112 20.6689 32.7153 20.6764 32.7209 20.6829C32.7264 20.6894 32.7331 20.6947 32.7407 20.6986C32.7484 20.7025 32.7567 20.7048 32.7652 20.7055C33.4724 20.7137 34.1961 20.2555 34.6906 19.7946C34.9497 19.5684 35.1549 19.2881 35.2914 18.9739C35.3594 18.7967 35.4103 18.6135 35.4433 18.4268C35.482 18.2271 35.424 17.985 35.4889 17.8003C35.4924 17.7885 35.4912 17.7758 35.4856 17.7649C35.4799 17.7539 35.4702 17.7456 35.4585 17.7415Z" fill="#8DB54F"/>
<path fill-rule="evenodd" clip-rule="evenodd" d="M32.5869 20.681C32.5869 20.4854 32.6463 20.3636 32.7029 19.7481C32.7596 19.1326 32.7485 18.8249 32.7899 18.7236C32.8314 18.6224 33.1629 18.8372 33.1629 18.8372C33.1629 18.8372 33.0565 19.3091 32.9778 19.6962C32.8991 20.0832 32.8203 20.7794 32.8203 20.7794C32.8203 20.7794 32.7775 20.893 32.6739 20.8643C32.5703 20.8355 32.5869 20.681 32.5869 20.681Z" fill="#300D33"/>
<defs>
<filter id="filter0_d_430_13" x="0" y="0" width="48" height="48" filterUnits="userSpaceOnUse" color-interpolation-filters="sRGB">
<feFlood flood-opacity="0" result="BackgroundImageFix"/>
<feColorMatrix in="SourceAlpha" type="matrix" values="0 0 0 0 0 0 0 0 0 0 0 0 0 0 0 0 0 0 127 0" result="hardAlpha"/>
<feOffset dy="4"/>
<feGaussianBlur stdDeviation="2"/>
<feComposite in2="hardAlpha" operator="out"/>
<feColorMatrix type="matrix" values="0 0 0 0 0 0 0 0 0 0 0 0 0 0 0 0 0 0 0.25 0"/>
<feBlend mode="normal" in2="BackgroundImageFix" result="effect1_dropShadow_430_13"/>
<feBlend mode="normal" in="SourceGraphic" in2="effect1_dropShadow_430_13" result="shape"/>
</filter>
</defs>
</svg>
