<svg width="60" height="60" viewBox="0 0 90 80" fill="none" xmlns="http://www.w3.org/2000/svg">
<g clip-path="url(#clip0_430_436)">
<path d="M37.8181 21.8266C38.4499 21.7653 39.0778 21.7209 39.7111 21.6992C40.0655 21.6794 40.4235 21.6748 40.7815 21.6701C43.2604 21.5924 45.7418 21.6981 48.2055 21.9865C50.626 22.2887 52.9918 22.9327 55.2325 23.8993C56.3173 24.3703 57.7028 25.6415 56.8105 26.9313C56.3648 27.4557 55.7985 27.8637 55.1603 28.1203C52.6014 29.4735 49.9335 30.609 47.1846 31.5149C40.9997 33.3434 34.375 32.999 28.4093 30.539C27.1952 30.0392 26.0602 29.3649 25.0399 28.5375C23.9159 27.5962 23.6906 27.0819 25.0098 26.1469C28.8566 23.6692 33.2571 22.1849 37.8181 21.8266Z" fill="#D88121"/>
<path d="M53.5838 26.3107C52.7544 28.7149 51.215 30.8094 49.1694 32.3168C47.114 33.8108 44.6541 34.6454 42.1143 34.7106C39.3188 34.6902 36.5731 33.9644 34.1309 32.6002C33.0322 32.0226 31.969 31.3796 30.947 30.6748C29.8817 30.0667 28.8847 29.3456 27.9733 28.5239C27.0688 27.4987 28.5768 27.1265 29.3537 26.7672C30.3958 26.2909 31.4647 25.8756 32.555 25.5234C36.9776 24.0996 41.6639 23.6891 46.2676 24.3224C46.8619 24.4058 53.7323 25.892 53.5838 26.3107Z" fill="white"/>
<path d="M54.2529 24.786C54.5835 24.6499 54.9435 24.6007 55.2986 24.6432C55.6537 24.6857 55.9921 24.8184 56.2816 25.0287C56.5712 25.239 56.8023 25.52 56.953 25.8448C57.1036 26.1697 57.1689 26.5277 57.1425 26.8848C56.6381 34.0053 56.0509 41.1135 55.6332 48.2295C55.5921 48.7987 55.5528 49.3755 55.4947 49.9407C55.1798 52.7964 54.4799 55.7112 52.6059 57.9122C50.8547 59.8547 48.5323 61.1897 45.9737 61.7247C43.4306 62.248 40.837 62.4853 38.241 62.4323C36.3399 62.407 34.4667 61.9687 32.7507 61.1476C30.6032 60.0964 29.5721 58.3658 28.6923 56.1279C26.909 51.7537 26.1233 47.1438 25.5492 42.4839C24.9751 37.824 24.3328 33.3481 24.0043 28.7821C23.7365 25.0809 27.2793 27.0734 29.6879 27.4395C35.7394 28.4314 41.9258 28.2194 47.8937 26.8156C50.0518 26.266 52.1753 25.5882 54.2529 24.786Z" fill="#F4BC2F"/>
<path d="M57.3629 53.4238C56.8585 53.4547 56.3524 53.4014 55.8654 53.266C54.9404 52.9817 54.1114 52.4473 53.4698 51.7218C52.8282 50.9962 52.3987 50.1076 52.2288 49.1537C52.0875 48.2558 52.1395 47.3381 52.3812 46.4622C52.623 45.5863 53.0489 44.7724 53.6305 44.0751C54.9298 42.4814 56.713 41.6526 58.4526 40.842L59.281 40.4305C60.5278 39.8764 61.6758 39.122 62.6794 38.1971C63.581 37.3762 64.1835 36.2778 64.3917 35.0752C64.4713 34.5624 64.4246 34.0379 64.2559 33.5471C64.0871 33.0563 63.8013 32.6141 63.4233 32.2588C62.9739 31.9275 62.4482 31.7153 61.8952 31.6419C61.3421 31.5686 60.7796 31.6364 60.2599 31.8392C59.0486 32.3308 58.0138 33.1769 57.2904 34.267C56.4752 35.5023 55.7859 36.8165 55.2327 38.1898C55.1741 38.3723 55.078 38.5406 54.9506 38.6837C54.8233 38.8269 54.6674 38.9418 54.4931 39.021C54.3187 39.1003 54.1298 39.1422 53.9382 39.1441C53.7467 39.1459 53.5569 39.1077 53.381 39.0318C53.205 38.9559 53.0468 38.844 52.9165 38.7034C52.7862 38.5627 52.6867 38.3964 52.6243 38.215C52.5619 38.0336 52.538 37.8412 52.5542 37.6501C52.5704 37.4591 52.6263 37.2735 52.7183 37.1053C53.3372 35.5395 54.1176 34.0426 55.0466 32.639C56.1017 31.0702 57.6217 29.8726 59.3926 29.2147C60.3572 28.8599 61.3964 28.7578 62.4118 28.918C63.4271 29.0781 64.385 29.4954 65.1946 30.13C65.9366 30.7872 66.5028 31.6198 66.8414 32.5519C67.1801 33.484 67.2805 34.486 67.1334 35.4666C66.8404 37.2756 65.9553 38.9354 64.6173 40.1851C63.4008 41.3256 62.0015 42.2533 60.4777 42.9292L59.6021 43.3439C58.0843 44.0461 56.6629 44.7175 55.7651 45.8487C55.4376 46.2313 55.1938 46.6785 55.0495 47.1613C54.9052 47.6442 54.8635 48.1521 54.9271 48.6522C54.9984 49.107 55.1923 49.5338 55.488 49.8866C55.7836 50.2393 56.1698 50.5045 56.6048 50.6536C56.9834 50.7543 57.3842 50.7305 57.748 50.5855C58.1118 50.4406 58.4193 50.1823 58.6251 49.8487C58.6979 49.6822 58.7373 49.5028 58.7409 49.3209C58.7445 49.1391 58.7122 48.9582 58.646 48.7888C58.6036 48.6454 58.5323 48.5122 58.4365 48.3973C58.3408 48.2825 58.2226 48.1885 58.0893 48.121C57.7786 47.9623 57.5397 47.6913 57.421 47.3629C57.3022 47.0345 57.3124 46.6733 57.4496 46.3523C57.5868 46.0314 57.8407 45.7748 58.1599 45.6344C58.479 45.494 58.8396 45.4804 59.1686 45.5962C59.6455 45.8095 60.0737 46.1183 60.4268 46.5037C60.78 46.889 61.0506 47.3426 61.222 47.8366C61.42 48.3567 61.5092 48.912 61.4841 49.4679C61.4589 50.0238 61.3199 50.5685 61.0756 51.0682C60.7143 51.7498 60.1819 52.3254 59.531 52.7384C58.8801 53.1514 58.1329 53.3876 57.3629 53.4238Z" fill="#F4BC2F"/>
<path d="M49.329 57.5514C47.3306 57.6718 46.9118 59.9527 47.8801 61.1466C49.171 60.6596 50.3703 59.9575 51.4272 59.0699C51.3158 58.6078 51.0431 58.2007 50.6583 57.9222C50.2734 57.6437 49.8019 57.5122 49.329 57.5514Z" fill="white"/>
<path d="M48.8495 37.9551C46.0818 38.1293 46.3494 42.438 49.1189 42.2713C51.8884 42.1047 51.6265 37.7867 48.8495 37.9551Z" fill="white"/>
<path d="M55.5955 48.2386C55.6446 47.3319 55.7106 46.4291 55.754 45.5317C55.5936 45.5112 55.4317 45.504 55.2701 45.5101C52.5269 45.6866 52.7656 49.9062 55.4907 49.8219C55.5292 49.3093 55.5605 48.7664 55.5955 48.2386Z" fill="white"/>
<path d="M45.2467 34.7298C48.0144 34.5556 47.7467 30.247 44.9697 30.4154C42.1926 30.5838 42.4697 34.8983 45.2467 34.7298Z" fill="white"/>
<path d="M56.2476 27.4876C53.4706 27.656 53.74 31.9722 56.5153 31.7962L56.742 31.7427C56.8476 30.343 56.9507 28.944 57.0513 27.5455C56.789 27.478 56.5168 27.4583 56.2476 27.4876Z" fill="white"/>
<path d="M46.5573 48.3514C43.7896 48.5256 44.0573 52.8343 46.8326 52.6583C49.6078 52.4823 49.3326 48.1754 46.5573 48.3514Z" fill="white"/>
<path d="M25.8948 44.656L25.8419 44.6685C26.0406 46.0842 26.279 47.4985 26.5418 48.915C28.9106 48.4034 28.5304 44.497 25.8948 44.656Z" fill="white"/>
<path d="M39.6146 62.4034C39.7711 62.0671 39.8382 61.6959 39.8093 61.3258C39.7804 60.9558 39.6565 60.5994 39.4496 60.2913C39.2428 59.9831 38.96 59.7337 38.6287 59.5671C38.2973 59.4005 37.9287 59.3224 37.5585 59.3405C37.234 59.3594 36.9184 59.4537 36.6366 59.6158C36.3548 59.7779 36.1146 60.0034 35.9348 60.2745C35.7551 60.5457 35.6408 60.855 35.601 61.178C35.5611 61.5011 35.5968 61.829 35.7053 62.136C36.542 62.3288 37.3976 62.427 38.2561 62.4286L39.6146 62.4034Z" fill="white"/>
<path d="M37.4393 38.6682C34.6716 38.8424 34.9317 43.1529 37.707 42.9769C40.4822 42.8009 40.2145 38.4922 37.4393 38.6682Z" fill="white"/>
<path d="M25.1753 35.2592C25.0001 35.2812 24.8278 35.3219 24.6613 35.3806C24.8338 36.7865 25.0157 38.1982 25.1882 39.6041L25.4577 39.5964C28.22 39.3995 27.9505 35.0832 25.1753 35.2592Z" fill="white"/>
<path d="M34.9996 49.8584C32.2319 50.0326 32.4996 54.3413 35.2673 54.1671C38.035 53.9929 37.7748 49.6824 34.9996 49.8584Z" fill="white"/>
<path d="M32.551 34.9316C35.3262 34.7556 35.0585 30.447 32.2833 30.623C29.508 30.799 29.7833 35.1059 32.551 34.9316Z" fill="white"/>
<g style="mix-blend-mode:multiply">
<path d="M52.606 57.9122C54.4422 55.7201 55.1648 52.8 55.442 49.9532C55.5 49.388 55.5393 48.8112 55.5804 48.242C55.9981 41.126 56.5853 34.0178 57.0897 26.8973C57.1161 26.5402 57.0509 26.1822 56.9002 25.8573C56.7495 25.5325 56.5184 25.2515 56.2288 25.0412C55.9393 24.8309 55.6009 24.6982 55.2458 24.6557C54.8907 24.6132 54.5307 24.6624 54.2001 24.7985C53.7551 24.9755 53.3217 25.1338 52.8959 25.2904C52.8665 26.72 52.8634 28.1594 52.866 29.5894C52.8685 31.6269 52.8693 33.6568 52.7757 35.693C52.5851 40.9331 51.4801 46.3893 48.3041 50.5442C45.8787 53.6377 42.4996 55.8409 38.6927 56.8109C35.5067 57.6064 32.1746 57.6116 28.985 56.8261C29.8239 58.722 30.8374 60.2089 32.766 61.1441C34.4819 61.9652 36.3551 62.4035 38.2562 62.4288C40.8522 62.4817 43.4459 62.2444 45.9889 61.7211C48.5417 61.1841 50.8583 59.8506 52.606 57.9122Z" fill="#E8E8E8"/>
</g>
</g>
<defs>
<clipPath id="clip0_430_436">
<rect width="43" height="41" fill="white" transform="translate(24 20)"/>
</clipPath>
</defs>
</svg>
