<svg width="255" height="327" viewBox="0 0 255 327" fill="none" xmlns="http://www.w3.org/2000/svg">
<g clip-path="url(#clip0_857_2204)">
<path d="M231.02 206.56C272.114 128.65 259.073 40.8331 201.892 10.4148C144.712 -20.0034 65.0454 18.4959 23.9521 96.4054C-17.1412 174.315 -4.10004 262.132 53.0803 292.55C110.261 322.968 189.927 284.469 231.02 206.56Z" fill="#97BEFC"/>
<path d="M98.297 327C129.535 327 154.858 326.364 154.858 325.58C154.858 324.797 129.535 324.161 98.297 324.161C67.0593 324.161 41.7361 324.797 41.7361 325.58C41.7361 326.364 67.0593 327 98.297 327Z" fill="#3B2645"/>
<path d="M98.441 325.581C135.891 325.581 166.251 295.273 166.251 257.887C166.251 220.5 135.891 190.192 98.441 190.192C60.9908 190.192 30.6313 220.5 30.6313 257.887C30.6313 295.273 60.9908 325.581 98.441 325.581Z" fill="#FA9E97"/>
<path d="M86.5866 305.188C81.2507 305.188 75.9147 304.58 70.6365 303.305C51.9463 298.873 36.1692 287.055 26.2184 269.994C16.2676 252.962 13.3545 232.743 17.9694 213.075C22.5842 193.407 34.2079 176.665 50.7061 165.889C67.2042 155.114 86.5866 151.638 105.277 156.07C123.967 160.502 139.744 172.32 149.695 189.381C159.646 206.413 162.559 226.632 157.944 246.3C153.329 265.968 141.677 282.71 125.207 293.486C113.382 301.191 100.085 305.188 86.5866 305.188ZM89.4132 154.795C56.7342 154.795 26.6799 178.461 18.4885 213.22C13.9025 232.743 16.8156 252.788 26.6799 269.704C36.5442 286.621 52.2059 298.352 70.7519 302.755C76.0013 304 81.3084 304.609 86.5866 304.609C99.9697 304.609 113.151 300.669 124.89 292.993C141.244 282.305 152.781 265.678 157.396 246.155C161.982 226.632 159.069 206.587 149.205 189.671C139.34 172.754 123.679 161.023 105.133 156.62C99.8832 155.375 94.6049 154.795 89.4132 154.795Z" fill="white"/>
<path d="M63.8583 270.255C57.5417 270.255 51.7731 268.662 46.841 265.418C36.6018 258.698 31.237 245.808 31.785 229.094C32.333 212.409 38.6496 193.929 49.6099 177.042C60.5702 160.154 74.8475 146.859 89.8458 139.617C104.844 132.376 118.775 132.086 129.014 138.777C139.254 145.497 144.618 158.387 144.07 175.101C143.522 191.785 137.206 210.266 126.246 227.153C115.285 244.041 101.008 257.336 86.0097 264.578C78.2221 268.372 70.7229 270.255 63.8583 270.255ZM49.8118 177.158L49.9849 177.273C39.0534 194.103 32.7657 212.525 32.2177 229.094C31.6985 245.663 36.9767 258.408 47.0718 265.041C67.9829 278.742 103.344 261.623 125.871 226.922C148.397 192.22 149.695 152.826 128.784 139.154C107.873 125.453 72.5112 142.572 49.9849 177.273L49.8118 177.158Z" fill="white"/>
<path d="M57.8303 244.273C53.6769 244.273 50.2734 243.027 48.2833 240.42C45.6297 237.002 45.7163 231.788 48.5429 225.763C51.3406 219.767 56.4458 213.684 62.9931 208.586L63.1085 208.731L62.9931 208.586C76.5205 198.042 91.9514 195.204 97.3739 202.242C102.796 209.281 96.1913 223.562 82.664 234.105C74.1265 240.681 64.8679 244.273 57.8303 244.273ZM63.2239 208.876C56.7342 213.916 51.6579 219.97 48.889 225.908C46.1489 231.788 46.0335 236.857 48.6005 240.159C53.8788 247.024 69.0501 244.128 82.4333 233.729C95.8164 223.33 102.364 209.281 97.0566 202.445C91.7495 195.609 76.5781 198.477 63.2239 208.876Z" fill="white"/>
<g opacity="0.3">
<path opacity="0.3" d="M155.896 221.939C158.348 228.862 159.588 236.162 159.559 243.519C159.559 279.293 130.687 308.259 95.0952 308.259C61.8682 308.259 34.5251 283.029 31.0063 250.616C30.7467 253.02 30.6313 255.453 30.6313 257.887C30.6313 295.253 61.0029 325.581 98.441 325.581C135.879 325.581 166.251 295.282 166.251 257.916C166.279 245.17 162.674 232.686 155.896 221.939Z" fill="#543753"/>
</g>
<path d="M141.619 71.1411C141.619 71.1411 136.629 74.3563 131.899 82.1483C127.169 89.9402 122.121 97.2686 122.121 97.2686C122.121 97.2686 120.275 81.482 121.14 79.3965C122.006 77.3109 125.121 72.7053 125.842 71.1411C126.563 69.5769 129.995 67.3465 130.024 66.4485C130.053 65.5506 129.678 62.7409 129.534 62.654C129.39 62.5671 127.659 63.2043 127.399 64.1313C127.197 64.7975 127.053 65.3768 127.053 65.3768C127.053 65.3768 124.717 66.6803 124.313 66.7092C123.909 66.7382 122.006 65.7244 121.977 65.5506C121.948 65.3768 123.563 61.6112 124.054 61.4084C124.544 61.2057 127.255 63.3202 127.774 63.3202C128.293 63.3202 129.39 62.625 129.447 62.2195C129.505 61.814 126.073 58.2801 125.784 58.2511C125.496 58.2221 122.554 57.7007 122.15 57.9904C121.746 58.2801 119.554 60.1918 119.554 60.1918C119.554 60.1918 119.554 53.6165 119.554 52.2841C119.554 50.9516 119.266 46.8384 118.66 46.5487C118.054 46.317 117.391 46.2591 116.756 46.346C116.468 46.4329 116.295 48.2577 116.295 48.2577C116.295 48.2577 114.766 48.026 114.362 48.3446C113.959 48.6633 113.122 61.1188 113.122 61.2346C113.122 61.3505 110.959 58.7146 110.699 58.2221C110.44 57.7297 109.546 54.7172 109.142 54.6014C108.738 54.4855 107.584 54.3986 107.44 54.6883C107.296 54.9779 108.219 59.3229 108.277 59.8153C108.334 60.3077 111.074 66.1589 111.218 67.0568C111.363 67.9548 111.94 75.486 112.113 77.0212C112.286 78.5564 110.353 96.6024 109.921 104.134C109.488 111.665 109.863 118.414 110.324 119.109C110.786 119.804 114.564 122.267 116.583 121.253C118.602 120.239 124.169 115.865 129.476 110.767C134.783 105.669 141.042 98.9777 141.042 98.9777L141.619 71.1411Z" fill="#FFEDE5"/>
<path d="M122.092 97.2394C122.092 97.2394 122.611 101.295 122.813 104.944C122.813 104.944 123.938 101.497 123.39 95.3276L122.092 97.2394Z" fill="#DE835C"/>
<path d="M112.805 65.0002C112.776 65.0002 112.747 65.0002 112.718 64.9713C112.661 64.9133 112.661 64.8265 112.718 64.7685C113.584 63.7837 118.516 60.6553 118.718 60.5105C118.775 60.4815 118.862 60.4815 118.92 60.5684C118.948 60.6264 118.948 60.7133 118.862 60.7712C118.804 60.8002 113.757 64.0154 112.92 64.9713C112.891 65.0002 112.834 65.0002 112.805 65.0002Z" fill="#472938"/>
<path d="M116.583 59.4386C116.555 59.4386 116.583 59.4386 116.583 59.4386C116.497 59.4386 116.439 59.3807 116.439 59.2938C116.439 59.2069 116.785 51.5018 116.699 50.1115C116.612 48.808 116.208 48.4314 116.208 48.4314C116.151 48.3735 116.151 48.2866 116.18 48.2287C116.237 48.1707 116.324 48.1707 116.381 48.1997C116.439 48.2287 116.872 48.6631 116.958 50.0825C117.045 51.5018 116.699 59.0041 116.699 59.3227C116.699 59.3807 116.641 59.4386 116.583 59.4386Z" fill="#472938"/>
<path d="M117.477 71.5177C117.449 71.4887 117.449 71.5177 117.477 71.5177C117.362 71.4887 117.333 71.4308 117.333 71.3439C117.939 67.9259 121.717 65.5217 121.862 65.4348C121.919 65.4058 122.006 65.4058 122.063 65.4927C122.092 65.5507 122.092 65.6376 122.006 65.6955C121.977 65.7245 118.17 68.1287 117.593 71.4308C117.593 71.4598 117.535 71.5177 117.477 71.5177Z" fill="#472938"/>
<path d="M144.821 323.118C144.936 323.727 146.292 325.725 153.127 326.333C159.963 326.942 168.328 324.451 172.452 323.987C175.913 323.611 180.326 322.307 181.653 321.873C181.884 321.815 182.057 321.583 182.057 321.322C182.057 320.917 182.028 320.251 181.999 319.439C176.404 319.526 168.501 321.612 159.011 322.915C151.858 323.9 147.042 322.017 144.936 320.888C144.821 321.641 144.792 322.365 144.821 323.118Z" fill="#3B2645"/>
<path d="M181.134 306.115C178.624 306.346 177.586 308.432 176.375 309.127C175.163 309.822 171.587 310.112 171.904 305.564C172.221 301.017 168.731 299.655 168.731 299.655C167.78 299.684 165.213 304.782 160.857 310.286C156.502 315.789 146.061 318.686 145.599 318.86C145.34 318.947 145.138 319.903 144.994 320.888C147.099 321.988 151.916 323.9 159.069 322.915C168.529 321.612 176.461 319.526 182.057 319.439C181.97 316.456 181.797 311.358 181.509 309.185C181.336 308.345 181.249 307.244 181.134 306.115Z" fill="#AB8DA8"/>
<path d="M171.904 305.594C171.616 310.141 175.163 309.852 176.375 309.157C177.586 308.461 178.653 306.376 181.134 306.144C180.903 303.218 180.73 300.09 180.73 300.09L168.702 299.685C168.731 299.685 172.192 301.075 171.904 305.594Z" fill="#FFEDE5"/>
<path d="M158.694 316.833C164.347 316.311 171.904 306.579 171.904 306.579C171.875 306.26 171.875 305.912 171.904 305.594C172.193 301.046 168.731 299.685 168.731 299.685C167.78 299.714 165.213 304.812 160.857 310.315C159.184 312.459 156.56 314.197 153.993 315.529C155.319 316.572 156.992 317.035 158.694 316.833Z" fill="#3B2645"/>
<path d="M124.631 321.38C125.121 322.915 128.265 323.466 135.216 323.466C142.167 323.466 145.484 311.068 148.311 308.548C151.137 306.057 156.992 297.483 156.992 296.006C156.992 295.571 156.127 294.499 154.887 293.167C153.646 295.832 150.878 301.191 146.811 305.043C143.436 308.258 143.292 319.063 134.899 321.061C130.976 321.988 127.313 320.946 124.544 319.584C124.429 320.193 124.486 320.801 124.631 321.38Z" fill="#3B2645"/>
<path d="M146.292 284.854C143.321 288.04 144.273 291.921 144.128 293.485C143.984 295.05 138.648 295.455 137.812 295.108C136.975 294.76 136.081 293.456 134.408 293.485C133.399 293.514 132.476 294.007 131.928 294.847C131.495 300.379 130.716 306.955 130.37 309.562C129.793 313.878 127.313 314.978 126.073 315.847C125.207 316.427 124.631 318.136 124.515 319.613C127.284 320.974 130.947 322.017 134.87 321.09C143.292 319.121 143.407 308.287 146.782 305.072C150.849 301.219 153.618 295.89 154.858 293.196C151.858 289.952 146.666 285.288 146.292 284.854Z" fill="#AB8DA8"/>
<path d="M134.379 293.457C136.081 293.428 136.946 294.731 137.783 295.079C138.619 295.427 143.955 295.021 144.1 293.457C144.244 291.893 143.292 288.011 146.263 284.825C145.744 284.188 143.955 280.856 143.955 280.856L132.101 286.737C132.303 288.127 132.159 291.255 131.87 294.818C132.447 293.978 133.399 293.486 134.379 293.457Z" fill="#FFEDE5"/>
<path d="M133.11 312.922C137.321 311.387 137.783 295.079 137.783 295.079C136.946 294.731 136.052 293.428 134.379 293.457C133.37 293.485 132.447 293.978 131.899 294.818C131.466 300.351 130.688 306.926 130.341 309.533C130.197 310.865 129.736 312.14 129.015 313.269C130.399 313.501 131.812 313.356 133.11 312.922Z" fill="#3B2645"/>
<path d="M182.893 132.607C182.893 132.607 198.122 158.503 198.122 171.625C198.122 184.747 185.028 228.631 184.797 234.54C184.566 240.449 189.21 253.368 187.739 266.403C186.268 279.437 180.73 300.061 180.73 300.061C180.73 300.061 173.288 301.191 168.702 299.656C168.702 299.656 168.501 260.899 165.789 245.054C163.078 229.21 160.973 195.638 160.973 195.638C160.973 195.638 133.139 225.85 132.245 230.861C131.351 235.872 136.456 239.174 138.879 254.295C141.302 269.415 143.984 280.886 143.984 280.886C143.984 280.886 138.504 287.374 132.13 286.766C132.13 286.766 108.392 233.091 109.748 226.082C111.103 219.072 138.562 167.454 139.571 161.342C140.581 155.23 141.302 147.467 142.571 139.501L182.893 132.607Z" fill="#AB8DA8"/>
<path d="M164.03 150.016C173.663 148.394 181.307 142.601 185.951 138.14C184.162 134.78 182.893 132.636 182.893 132.636L142.542 139.501C142.254 141.297 141.994 143.093 141.763 144.86C145.484 147.699 153.041 151.87 164.03 150.016Z" fill="#3B2645"/>
<g opacity="0.5">
<path opacity="0.5" d="M161.001 195.638V183.472C161.001 183.472 157.367 176.231 157.021 170.177L157.858 188.02L149.955 207.978L161.001 195.638Z" fill="#543753"/>
</g>
<path d="M142.571 123.107C143.407 127.249 142.571 139.502 142.571 139.502C142.571 139.502 144.59 144.049 155.435 145.845C166.28 147.641 182.893 132.608 182.893 132.608C181.336 129.074 181.076 125.018 181.191 121.89C156.992 118.153 142.571 123.107 142.571 123.107Z" fill="#FFEDE5"/>
<path d="M181.826 129.363C181.278 126.901 181.076 124.41 181.191 121.89C178.278 121.426 175.509 121.108 172.885 120.876L173.548 126.727L181.826 129.363Z" fill="#DE835C"/>
<path d="M156.704 92.4311C171.991 91.0408 176.634 77.977 178.019 70.6775L173.923 69.5188L153.964 67.4912L148.109 68.9975C145.022 79.686 143.407 93.6188 156.704 92.4311Z" fill="#FFEDE5"/>
<path d="M189.498 73.8348L183.383 72.1548C179.518 105.582 186.787 104.684 186.787 104.684L188.806 99.3831L189.498 73.8348Z" fill="#FFEDE5"/>
<path d="M181.711 116.85C186.873 112.215 186.787 104.684 186.787 104.684C186.787 104.684 179.49 105.582 183.383 72.1547L178.019 70.6774C176.605 77.9769 171.962 91.0697 156.704 92.4311C143.407 93.6187 145.022 79.6859 148.137 69.0264L142.109 70.5905C142.109 70.5905 135.1 93.5608 134.899 101.874C134.754 107.204 137.927 114.416 140.263 118.906C155.925 112.215 181.711 116.85 181.711 116.85Z" fill="#AB8DA8"/>
<path d="M181.191 121.89C181.249 120.181 181.422 118.501 181.739 116.821C181.739 116.821 155.954 112.186 140.263 118.878C141.561 121.398 142.571 123.078 142.571 123.078C142.571 123.078 156.992 118.153 181.191 121.89Z" fill="#3B2645"/>
<path d="M183.383 72.126C183.383 72.126 186.21 87.9415 175.827 106.538L174.644 119.167L175.654 147.989C175.654 147.989 171.039 149.234 168.587 149.234C166.135 149.234 162.703 150.364 162.703 150.364L162.213 145.7L159.617 145.758C159.617 145.758 158.867 136.286 162.097 128.523C165.328 120.76 166.885 116.068 167.404 108.073C167.924 100.078 166.135 89.3609 172.048 73.0529L183.383 72.126Z" fill="white"/>
<path d="M188.835 99.383L187.104 92.8076L186.816 104.655L188.835 99.383Z" fill="#DE835C"/>
<path d="M155.377 144.078C155.68 144.078 155.925 143.702 155.925 143.238C155.925 142.774 155.68 142.398 155.377 142.398C155.074 142.398 154.829 142.774 154.829 143.238C154.829 143.702 155.074 144.078 155.377 144.078Z" fill="#DE835C"/>
<path d="M154.944 58.3959C154.944 58.3959 155.06 70.33 148.657 86.2035C142.253 102.077 141.734 107.667 143.234 123.078C144.734 138.488 141.042 150.798 141.042 150.798C141.042 150.798 123.967 154.361 117.189 145.121C117.189 145.121 125.553 125.771 129.303 102.656C133.053 79.5413 142.109 70.5328 142.109 70.5328C142.109 70.5328 143.84 65.5506 147.762 66.072C147.762 66.1299 150.935 58.1931 154.944 58.3959Z" fill="white"/>
<path d="M133.601 135.475C133.514 135.475 133.456 135.417 133.456 135.33C132.303 113.78 138.533 94.1983 141.879 83.6836L142.109 82.9884C142.138 82.9015 142.225 82.8725 142.282 82.9015C142.369 82.9305 142.398 83.0173 142.369 83.0753L142.138 83.7705C138.792 94.2852 132.591 113.808 133.745 135.301C133.745 135.417 133.687 135.475 133.601 135.475Z" fill="#472938"/>
<path d="M143.609 78.6725H143.58C143.494 78.6435 143.465 78.5566 143.494 78.4987C145.888 70.2433 147.618 66.1301 147.647 66.1012C147.676 66.0143 147.762 65.9853 147.849 66.0143C147.936 66.0432 147.964 66.1301 147.936 66.217C147.907 66.246 146.176 70.3592 143.811 78.5856C143.724 78.6146 143.667 78.6725 143.609 78.6725Z" fill="#472938"/>
<path d="M133.11 96.4866H133.081C132.995 96.4576 132.966 96.3997 132.966 96.3128C135.475 86.5512 141.907 70.7066 141.965 70.5328C141.994 70.4459 142.08 70.417 142.167 70.4459C142.253 70.4749 142.282 70.5618 142.253 70.6487C142.196 70.7935 135.764 86.6381 133.254 96.3707C133.254 96.4286 133.197 96.4866 133.11 96.4866Z" fill="#472938"/>
<path d="M162.242 145.874C162.155 145.874 162.097 145.816 162.097 145.729C162.097 145.642 162.04 135.967 163.914 131.478C163.943 131.391 164.03 131.362 164.116 131.391C164.203 131.42 164.232 131.507 164.203 131.594C162.357 136.025 162.415 145.642 162.415 145.729C162.386 145.816 162.328 145.874 162.242 145.874Z" fill="#472938"/>
<path d="M165.241 144.223C165.155 144.223 165.097 144.165 165.097 144.078C165.097 143.991 164.78 135.91 166.51 129.827C168.241 123.802 168.702 113.519 168.702 113.432C168.702 113.345 168.76 113.287 168.847 113.287C168.933 113.287 168.991 113.345 168.991 113.432C168.991 113.548 168.529 123.831 166.799 129.914C165.068 135.939 165.385 143.991 165.385 144.049C165.385 144.136 165.328 144.223 165.241 144.223Z" fill="#472938"/>
<path d="M171.125 131.246C171.096 131.246 171.096 131.246 171.125 131.246C171.01 131.217 170.981 131.159 170.981 131.072C172.106 125.163 171.212 112.997 171.212 112.852C171.212 112.765 171.269 112.708 171.356 112.708C171.442 112.708 171.5 112.765 171.5 112.852C171.5 112.968 172.394 125.192 171.269 131.13C171.241 131.188 171.183 131.246 171.125 131.246Z" fill="#472938"/>
<path d="M173.259 107.899C173.144 107.87 173.115 107.812 173.115 107.725C173.144 107.61 174.932 96.5445 176.663 91.4464C176.692 91.3595 176.778 91.3305 176.836 91.3595C176.922 91.3885 176.951 91.4754 176.922 91.5333C175.221 96.6024 173.404 107.639 173.404 107.754C173.404 107.841 173.346 107.899 173.259 107.899Z" fill="#472938"/>
<path d="M171.125 106.682C171.068 106.682 171.01 106.625 170.981 106.567C170.981 106.509 170.029 101.613 171.269 92.7787C171.269 92.6918 171.356 92.6338 171.443 92.6628C171.529 92.6628 171.587 92.7497 171.558 92.8366C170.347 101.642 171.269 106.48 171.269 106.538C171.269 106.596 171.212 106.682 171.125 106.682Z" fill="#472938"/>
<path d="M173.75 49.1846L173.923 69.5189H153.762L155.694 51.386L173.75 49.1846Z" fill="#FFEDE5"/>
<path d="M155.694 51.386C155.694 51.386 158.636 70.6486 173.837 59.3517L173.75 49.1846L155.694 51.386Z" fill="#DE835C"/>
<path d="M152.452 48.2977C153.754 47.9254 154.209 45.5031 153.467 42.8874C152.726 40.2717 151.069 38.4531 149.767 38.8254C148.464 39.1977 148.01 41.62 148.751 44.2357C149.493 46.8514 151.149 48.67 152.452 48.2977Z" fill="#DE835C"/>
<path d="M173.779 51.0966C173.779 51.0966 173.721 56.0498 173.49 59.352C173.49 59.352 171.125 66.8542 172.192 73.8351C173.259 80.8159 172.913 85.9719 171.24 88.463L173.115 87.5651C173.115 87.5651 182.72 87.6809 182.605 73.6323C182.605 73.6323 187.45 65.7535 180.182 56.5133C172.913 47.273 177.009 42.2329 177.009 42.2329C177.009 42.2329 174.009 43.7392 173.779 51.0966Z" fill="#3B2645"/>
<path d="M176.951 42.2036C176.951 42.2036 174.009 43.7388 173.75 51.0962C173.75 51.0962 173.692 56.0495 173.461 59.3516C174.615 56.2812 175.596 53.1529 176.403 49.9666C174.759 44.8975 176.951 42.2036 176.951 42.2036Z" fill="#3B2645"/>
<path d="M178.16 43.8038C178.943 41.2004 178.526 38.7713 177.23 38.3783C175.934 37.9853 174.249 39.7773 173.466 42.3807C172.684 44.9842 173.1 47.4133 174.396 47.8063C175.692 48.1993 177.377 46.4073 178.16 43.8038Z" fill="#FFEDE5"/>
<path d="M150.791 29.3426C150.791 29.3426 150.272 44.4051 152.262 50.7197C154.252 57.0344 159.213 61.0317 162.472 61.0317C165.732 61.0317 172.077 58.6565 174.558 48.5183C177.038 38.3801 176.75 25.6639 166.107 22.3328C155.464 19.0017 150.791 25.9825 150.791 29.3426Z" fill="#FFEDE5"/>
<path d="M175.769 40.234C175.769 40.234 175.192 36.1498 173 33.9194C170.808 31.689 166.308 30.1827 167.145 26.6199C167.145 26.6199 164.261 28.3289 159.069 28.3289C153.877 28.3289 150.301 32.3842 150.82 39.2781L150.156 38.8147C150.156 38.8147 147.676 29.0241 150.704 24.2736C153.762 19.5231 160.972 16.5106 166.799 18.1617C172.625 19.8128 179.172 23.7232 178.595 31.3703C178.422 33.8035 178.076 36.2077 177.557 38.5829C177.557 38.554 175.884 38.8147 175.769 40.234Z" fill="#3B2645"/>
<path d="M155.435 41.4216C154.973 41.4216 154.598 41.0741 154.569 40.6106L154.541 40.0892C154.541 39.6257 154.887 39.2492 155.348 39.2202C155.81 39.2202 156.185 39.5678 156.213 40.0313L156.242 40.5527C156.242 41.0161 155.896 41.4216 155.435 41.4216Z" fill="#472938"/>
<path d="M168.328 41.8562C167.866 41.7983 167.549 41.3638 167.635 40.9003L167.722 40.3789C167.78 39.9155 168.212 39.5968 168.674 39.6837C169.135 39.7417 169.452 40.1762 169.366 40.6396L169.279 41.161C169.193 41.6245 168.76 41.9141 168.328 41.8562Z" fill="#472938"/>
<path d="M152.435 37.8878C152.435 37.8878 153.214 37.0188 155.031 36.9898C156.848 36.9608 157.425 37.1346 157.54 36.5553C157.656 35.976 153.762 34.4987 152.435 37.8878Z" fill="#472938"/>
<path d="M171.385 37.627C171.385 37.627 170.52 36.816 168.558 36.9029C166.597 36.9898 166.02 37.1926 165.876 36.6422C165.732 36.0918 169.856 34.3249 171.385 37.627Z" fill="#472938"/>
<path d="M166.251 50.4301L158.636 50.1694C158.636 50.1694 159.04 55.4123 162.443 55.3254C165.847 55.2385 166.251 50.4301 166.251 50.4301Z" fill="white"/>
<path d="M161.982 48.1418C161.492 48.1418 161.03 48.026 160.655 47.8522C160.338 47.6784 160.165 47.4466 160.078 47.1859C159.905 46.5197 160.251 44.8976 160.655 42.87L160.799 42.2327C161.463 38.9595 159.675 38.0616 159.588 38.0326C159.502 38.0037 159.473 37.8878 159.502 37.8009C159.53 37.714 159.646 37.685 159.732 37.714C159.819 37.743 161.838 38.7568 161.117 42.2907L160.973 42.9279C160.569 44.8397 160.251 46.5197 160.396 47.0991C160.453 47.2728 160.569 47.4177 160.799 47.5625C161.347 47.8522 162.213 47.9101 163.02 47.6494C163.107 47.6204 163.222 47.6784 163.251 47.7653C163.28 47.8522 163.222 47.968 163.136 47.997C162.761 48.0839 162.357 48.1418 161.982 48.1418Z" fill="#472938"/>
<path d="M189.498 73.835C189.498 73.835 195.526 74.1246 198.526 82.7566C201.526 91.3596 211.015 116.386 211.39 120.992C211.765 125.598 210.351 129.305 203.804 130.667C198.237 131.825 183.47 127.509 182.259 127.394C181.047 127.278 177.615 127.191 176.461 125.192C175.307 123.193 174.673 119.804 174.673 119.804C174.673 119.804 171.644 118.646 171.125 118.646C170.606 118.646 166.943 118.877 166.597 118.327C166.251 117.777 166.251 116.734 166.366 116.242C166.366 116.242 165.732 115.083 165.933 114.388C165.933 114.388 165.27 112.708 165.328 112.331C165.385 111.955 167.174 110.854 167.549 110.767C167.924 110.68 172.25 110.506 172.25 110.506C172.25 110.506 170.952 108.913 170.721 108.855C170.491 108.797 167.404 108.913 167.404 108.913L167.347 109.695C167.347 109.695 166.51 108.971 166.366 108.565C166.222 108.16 166.481 106.972 166.828 106.828C167.174 106.683 171.269 105.321 172.51 105.756C173.75 106.19 177.701 108.623 178.221 109.434C178.74 110.246 181.653 118.385 182.576 118.993C183.499 119.602 188.229 120.268 195.786 118.646L185.027 91.3306L189.498 73.835Z" fill="#FFEDE5"/>
</g>
<defs>
<clipPath id="clip0_857_2204">
<rect width="255" height="327" fill="white"/>
</clipPath>
</defs>
</svg>
