<svg width="316" height="172" viewBox="0 0 316 172" fill="none" xmlns="http://www.w3.org/2000/svg">
<path d="M290.697 121.224C291.596 120.502 292.301 119.91 292.811 119.45C293.321 118.982 293.749 118.497 294.097 117.994C294.451 117.484 294.628 116.985 294.628 116.496C294.628 116.036 294.514 115.675 294.288 115.412C294.068 115.143 293.71 115.009 293.215 115.009C292.733 115.009 292.358 115.161 292.088 115.466C291.826 115.763 291.685 116.163 291.663 116.666H290.728C290.757 115.873 290.998 115.26 291.451 114.828C291.904 114.396 292.489 114.18 293.204 114.18C293.934 114.18 294.511 114.382 294.936 114.786C295.368 115.189 295.584 115.745 295.584 116.454C295.584 117.042 295.407 117.615 295.053 118.175C294.706 118.727 294.309 119.216 293.863 119.641C293.417 120.059 292.846 120.548 292.152 121.107H295.807V121.915H290.697V121.224ZM296.925 118.079C296.925 116.861 297.123 115.912 297.52 115.232C297.917 114.545 298.611 114.201 299.602 114.201C300.587 114.201 301.278 114.545 301.674 115.232C302.071 115.912 302.269 116.861 302.269 118.079C302.269 119.319 302.071 120.282 301.674 120.969C301.278 121.656 300.587 122 299.602 122C298.611 122 297.917 121.656 297.52 120.969C297.123 120.282 296.925 119.319 296.925 118.079ZM301.313 118.079C301.313 117.463 301.27 116.942 301.185 116.517C301.108 116.085 300.941 115.738 300.686 115.476C300.438 115.214 300.077 115.083 299.602 115.083C299.121 115.083 298.752 115.214 298.497 115.476C298.249 115.738 298.083 116.085 297.998 116.517C297.92 116.942 297.881 117.463 297.881 118.079C297.881 118.717 297.92 119.252 297.998 119.684C298.083 120.116 298.249 120.463 298.497 120.725C298.752 120.987 299.121 121.118 299.602 121.118C300.077 121.118 300.438 120.987 300.686 120.725C300.941 120.463 301.108 120.116 301.185 119.684C301.27 119.252 301.313 118.717 301.313 118.079ZM303.384 116.05C303.384 115.568 303.529 115.186 303.82 114.902C304.11 114.612 304.482 114.467 304.935 114.467C305.389 114.467 305.761 114.612 306.051 114.902C306.341 115.186 306.487 115.568 306.487 116.05C306.487 116.539 306.341 116.928 306.051 117.219C305.761 117.502 305.389 117.644 304.935 117.644C304.482 117.644 304.11 117.502 303.82 117.219C303.529 116.928 303.384 116.539 303.384 116.05ZM309.589 114.584L305.286 122H304.33L308.633 114.584H309.589ZM304.935 115.062C304.695 115.062 304.503 115.147 304.362 115.317C304.227 115.48 304.16 115.724 304.16 116.05C304.16 116.376 304.227 116.624 304.362 116.794C304.503 116.964 304.695 117.049 304.935 117.049C305.176 117.049 305.367 116.964 305.509 116.794C305.651 116.617 305.722 116.369 305.722 116.05C305.722 115.724 305.651 115.48 305.509 115.317C305.367 115.147 305.176 115.062 304.935 115.062ZM307.453 120.534C307.453 120.045 307.599 119.659 307.889 119.376C308.18 119.085 308.551 118.94 309.005 118.94C309.458 118.94 309.826 119.085 310.11 119.376C310.4 119.659 310.545 120.045 310.545 120.534C310.545 121.015 310.4 121.401 310.11 121.692C309.826 121.982 309.458 122.128 309.005 122.128C308.551 122.128 308.18 121.986 307.889 121.702C307.599 121.412 307.453 121.022 307.453 120.534ZM308.994 119.546C308.753 119.546 308.562 119.631 308.42 119.801C308.279 119.964 308.208 120.208 308.208 120.534C308.208 120.852 308.279 121.097 308.42 121.267C308.562 121.43 308.753 121.511 308.994 121.511C309.235 121.511 309.426 121.43 309.568 121.267C309.71 121.097 309.78 120.852 309.78 120.534C309.78 120.208 309.71 119.964 309.568 119.801C309.426 119.631 309.235 119.546 308.994 119.546Z" fill="#EB8F63"/>
<path d="M290.009 93.2894V92.5562L293.738 87.3925H294.896V92.45H295.959V93.2894H294.896V95H293.94V93.2894H290.009ZM293.983 88.4019L291.125 92.45H293.983V88.4019ZM296.925 91.0794C296.925 89.861 297.123 88.9119 297.52 88.2319C297.917 87.5448 298.611 87.2012 299.602 87.2012C300.587 87.2012 301.278 87.5448 301.674 88.2319C302.071 88.9119 302.269 89.861 302.269 91.0794C302.269 92.319 302.071 93.2823 301.674 93.9694C301.278 94.6565 300.587 95 299.602 95C298.611 95 297.917 94.6565 297.52 93.9694C297.123 93.2823 296.925 92.319 296.925 91.0794ZM301.313 91.0794C301.313 90.4631 301.27 89.9425 301.185 89.5175C301.108 89.0854 300.941 88.7383 300.686 88.4762C300.438 88.2142 300.077 88.0831 299.602 88.0831C299.121 88.0831 298.752 88.2142 298.497 88.4762C298.249 88.7383 298.083 89.0854 297.998 89.5175C297.92 89.9425 297.881 90.4631 297.881 91.0794C297.881 91.7169 297.92 92.2517 297.998 92.6837C298.083 93.1158 298.249 93.4629 298.497 93.725C298.752 93.9871 299.121 94.1181 299.602 94.1181C300.077 94.1181 300.438 93.9871 300.686 93.725C300.941 93.4629 301.108 93.1158 301.185 92.6837C301.27 92.2517 301.313 91.7169 301.313 91.0794ZM303.384 89.05C303.384 88.5683 303.529 88.1858 303.82 87.9025C304.11 87.6121 304.482 87.4669 304.935 87.4669C305.389 87.4669 305.761 87.6121 306.051 87.9025C306.341 88.1858 306.487 88.5683 306.487 89.05C306.487 89.5387 306.341 89.9283 306.051 90.2187C305.761 90.5021 305.389 90.6437 304.935 90.6437C304.482 90.6437 304.11 90.5021 303.82 90.2187C303.529 89.9283 303.384 89.5387 303.384 89.05ZM309.589 87.5837L305.286 95H304.33L308.633 87.5837H309.589ZM304.935 88.0619C304.695 88.0619 304.503 88.1469 304.362 88.3169C304.227 88.4798 304.16 88.7242 304.16 89.05C304.16 89.3758 304.227 89.6237 304.362 89.7937C304.503 89.9637 304.695 90.0487 304.935 90.0487C305.176 90.0487 305.367 89.9637 305.509 89.7937C305.651 89.6167 305.722 89.3687 305.722 89.05C305.722 88.7242 305.651 88.4798 305.509 88.3169C305.367 88.1469 305.176 88.0619 304.935 88.0619ZM307.453 93.5337C307.453 93.045 307.599 92.659 307.889 92.3756C308.18 92.0852 308.551 91.94 309.005 91.94C309.458 91.94 309.826 92.0852 310.11 92.3756C310.4 92.659 310.545 93.045 310.545 93.5337C310.545 94.0154 310.4 94.4015 310.11 94.6919C309.826 94.9823 309.458 95.1275 309.005 95.1275C308.551 95.1275 308.18 94.9858 307.889 94.7025C307.599 94.4121 307.453 94.0225 307.453 93.5337ZM308.994 92.5456C308.753 92.5456 308.562 92.6306 308.42 92.8006C308.279 92.9635 308.208 93.2079 308.208 93.5337C308.208 93.8525 308.279 94.0969 308.42 94.2669C308.562 94.4298 308.753 94.5112 308.994 94.5112C309.235 94.5112 309.426 94.4298 309.568 94.2669C309.71 94.0969 309.78 93.8525 309.78 93.5337C309.78 93.2079 309.71 92.9635 309.568 92.8006C309.426 92.6306 309.235 92.5456 308.994 92.5456Z" fill="#EB8F63"/>
<path d="M292.372 61.3369C292.316 61.0748 292.217 60.88 292.075 60.7525C291.933 60.6179 291.731 60.5506 291.469 60.5506C291.066 60.5506 290.775 60.7277 290.598 61.0819C290.421 61.429 290.329 61.9815 290.322 62.7394C290.478 62.4915 290.701 62.2967 290.991 62.155C291.289 62.0133 291.615 61.9425 291.969 61.9425C292.663 61.9425 293.219 62.1621 293.637 62.6012C294.062 63.0404 294.274 63.6531 294.274 64.4394C294.274 64.9565 294.168 65.4098 293.956 65.7994C293.75 66.189 293.446 66.4935 293.042 66.7131C292.645 66.9327 292.174 67.0425 291.629 67.0425C290.538 67.0425 289.78 66.7025 289.355 66.0225C288.93 65.3354 288.717 64.3508 288.717 63.0687C288.717 61.7229 288.941 60.7242 289.387 60.0725C289.84 59.4137 290.563 59.0844 291.554 59.0844C292.086 59.0844 292.532 59.1906 292.893 59.4031C293.261 59.6085 293.538 59.8812 293.722 60.2212C293.913 60.5612 294.026 60.9331 294.062 61.3369H292.372ZM291.533 63.3769C291.229 63.3769 290.974 63.469 290.768 63.6531C290.57 63.8302 290.471 64.0852 290.471 64.4181C290.471 64.7581 290.563 65.0237 290.747 65.215C290.938 65.4062 291.207 65.5019 291.554 65.5019C291.866 65.5019 292.11 65.4098 292.287 65.2256C292.472 65.0344 292.564 64.7758 292.564 64.45C292.564 64.1171 292.475 63.855 292.298 63.6637C292.121 63.4725 291.866 63.3769 291.533 63.3769ZM295.302 63.0156C295.302 61.7973 295.536 60.8375 296.003 60.1362C296.478 59.435 297.239 59.0844 298.288 59.0844C299.336 59.0844 300.094 59.435 300.561 60.1362C301.036 60.8375 301.273 61.7973 301.273 63.0156C301.273 64.2481 301.036 65.215 300.561 65.9162C300.094 66.6175 299.336 66.9681 298.288 66.9681C297.239 66.9681 296.478 66.6175 296.003 65.9162C295.536 65.215 295.302 64.2481 295.302 63.0156ZM299.488 63.0156C299.488 62.3002 299.41 61.7512 299.254 61.3687C299.099 60.9792 298.776 60.7844 298.288 60.7844C297.799 60.7844 297.477 60.9792 297.321 61.3687C297.165 61.7512 297.087 62.3002 297.087 63.0156C297.087 63.4973 297.115 63.8975 297.172 64.2162C297.229 64.5279 297.342 64.7829 297.512 64.9812C297.689 65.1725 297.948 65.2681 298.288 65.2681C298.628 65.2681 298.883 65.1725 299.053 64.9812C299.23 64.7829 299.347 64.5279 299.403 64.2162C299.46 63.8975 299.488 63.4973 299.488 63.0156ZM302.084 61.1987C302.084 60.625 302.247 60.1823 302.573 59.8706C302.906 59.559 303.335 59.4031 303.859 59.4031C304.383 59.4031 304.808 59.559 305.134 59.8706C305.46 60.1823 305.623 60.625 305.623 61.1987C305.623 61.7725 305.46 62.2152 305.134 62.5269C304.808 62.8385 304.383 62.9944 303.859 62.9944C303.335 62.9944 302.906 62.8385 302.573 62.5269C302.247 62.2152 302.084 61.7725 302.084 61.1987ZM309.299 59.52L305.208 67H303.455L307.546 59.52H309.299ZM303.848 60.4656C303.508 60.4656 303.338 60.71 303.338 61.1987C303.338 61.6804 303.508 61.9212 303.848 61.9212C304.011 61.9212 304.139 61.861 304.231 61.7406C304.323 61.6202 304.369 61.4396 304.369 61.1987C304.369 60.71 304.195 60.4656 303.848 60.4656ZM307.142 65.3212C307.142 64.7475 307.305 64.3048 307.631 63.9931C307.956 63.6815 308.381 63.5256 308.906 63.5256C309.43 63.5256 309.855 63.6815 310.181 63.9931C310.506 64.3048 310.669 64.7475 310.669 65.3212C310.669 65.895 310.506 66.3377 310.181 66.6494C309.855 66.961 309.43 67.1169 308.906 67.1169C308.381 67.1169 307.956 66.961 307.631 66.6494C307.305 66.3377 307.142 65.895 307.142 65.3212ZM308.895 64.5881C308.732 64.5881 308.605 64.6483 308.513 64.7687C308.428 64.8892 308.385 65.0733 308.385 65.3212C308.385 65.8029 308.555 66.0437 308.895 66.0437C309.058 66.0437 309.185 65.9835 309.278 65.8631C309.37 65.7427 309.416 65.5621 309.416 65.3212C309.416 65.0804 309.37 64.8998 309.278 64.7794C309.185 64.6519 309.058 64.5881 308.895 64.5881Z" fill="url(#paint0_linear_398_14233)"/>
<path d="M291.624 36.005C291.228 35.8492 290.923 35.6225 290.711 35.325C290.498 35.0275 290.392 34.6662 290.392 34.2412C290.392 33.8587 290.488 33.5152 290.679 33.2106C290.87 32.899 291.153 32.6546 291.529 32.4775C291.911 32.2933 292.372 32.2012 292.91 32.2012C293.448 32.2012 293.905 32.2933 294.281 32.4775C294.663 32.6546 294.95 32.899 295.141 33.2106C295.34 33.5152 295.439 33.8587 295.439 34.2412C295.439 34.6521 295.329 35.0133 295.109 35.325C294.89 35.6296 294.589 35.8562 294.206 36.005C294.646 36.1396 294.993 36.3769 295.248 36.7169C295.51 37.0498 295.641 37.4535 295.641 37.9281C295.641 38.3885 295.527 38.7923 295.301 39.1394C295.074 39.4794 294.752 39.745 294.334 39.9362C293.923 40.1204 293.448 40.2125 292.91 40.2125C292.372 40.2125 291.897 40.1204 291.486 39.9362C291.083 39.745 290.767 39.4794 290.541 39.1394C290.314 38.7923 290.201 38.3885 290.201 37.9281C290.201 37.4535 290.328 37.0462 290.583 36.7062C290.838 36.3662 291.185 36.1325 291.624 36.005ZM294.504 34.3581C294.504 33.926 294.362 33.5931 294.079 33.3594C293.796 33.1256 293.406 33.0087 292.91 33.0087C292.421 33.0087 292.035 33.1256 291.752 33.3594C291.469 33.5931 291.327 33.9296 291.327 34.3687C291.327 34.7654 291.472 35.0842 291.763 35.325C292.06 35.5658 292.443 35.6862 292.91 35.6862C293.385 35.6862 293.767 35.5658 294.058 35.325C294.355 35.0771 294.504 34.7548 294.504 34.3581ZM292.91 36.43C292.386 36.43 291.957 36.554 291.624 36.8019C291.292 37.0427 291.125 37.4075 291.125 37.8962C291.125 38.3496 291.284 38.7144 291.603 38.9906C291.929 39.2669 292.365 39.405 292.91 39.405C293.456 39.405 293.888 39.2669 294.206 38.9906C294.525 38.7144 294.684 38.3496 294.684 37.8962C294.684 37.4217 294.522 37.0604 294.196 36.8125C293.87 36.5575 293.441 36.43 292.91 36.43ZM296.925 36.0794C296.925 34.861 297.123 33.9119 297.52 33.2319C297.917 32.5448 298.611 32.2012 299.602 32.2012C300.587 32.2012 301.278 32.5448 301.674 33.2319C302.071 33.9119 302.269 34.861 302.269 36.0794C302.269 37.319 302.071 38.2823 301.674 38.9694C301.278 39.6565 300.587 40 299.602 40C298.611 40 297.917 39.6565 297.52 38.9694C297.123 38.2823 296.925 37.319 296.925 36.0794ZM301.313 36.0794C301.313 35.4631 301.27 34.9425 301.185 34.5175C301.108 34.0854 300.941 33.7383 300.686 33.4762C300.438 33.2142 300.077 33.0831 299.602 33.0831C299.121 33.0831 298.752 33.2142 298.497 33.4762C298.249 33.7383 298.083 34.0854 297.998 34.5175C297.92 34.9425 297.881 35.4631 297.881 36.0794C297.881 36.7169 297.92 37.2517 297.998 37.6837C298.083 38.1158 298.249 38.4629 298.497 38.725C298.752 38.9871 299.121 39.1181 299.602 39.1181C300.077 39.1181 300.438 38.9871 300.686 38.725C300.941 38.4629 301.108 38.1158 301.185 37.6837C301.27 37.2517 301.313 36.7169 301.313 36.0794ZM303.384 34.05C303.384 33.5683 303.529 33.1858 303.82 32.9025C304.11 32.6121 304.482 32.4669 304.935 32.4669C305.389 32.4669 305.761 32.6121 306.051 32.9025C306.341 33.1858 306.487 33.5683 306.487 34.05C306.487 34.5387 306.341 34.9283 306.051 35.2187C305.761 35.5021 305.389 35.6437 304.935 35.6437C304.482 35.6437 304.11 35.5021 303.82 35.2187C303.529 34.9283 303.384 34.5387 303.384 34.05ZM309.589 32.5837L305.286 40H304.33L308.633 32.5837H309.589ZM304.935 33.0619C304.695 33.0619 304.503 33.1469 304.362 33.3169C304.227 33.4798 304.16 33.7242 304.16 34.05C304.16 34.3758 304.227 34.6237 304.362 34.7937C304.503 34.9637 304.695 35.0487 304.935 35.0487C305.176 35.0487 305.367 34.9637 305.509 34.7937C305.651 34.6167 305.722 34.3687 305.722 34.05C305.722 33.7242 305.651 33.4798 305.509 33.3169C305.367 33.1469 305.176 33.0619 304.935 33.0619ZM307.453 38.5337C307.453 38.045 307.599 37.659 307.889 37.3756C308.18 37.0852 308.551 36.94 309.005 36.94C309.458 36.94 309.826 37.0852 310.11 37.3756C310.4 37.659 310.545 38.045 310.545 38.5337C310.545 39.0154 310.4 39.4015 310.11 39.6919C309.826 39.9823 309.458 40.1275 309.005 40.1275C308.551 40.1275 308.18 39.9858 307.889 39.7025C307.599 39.4121 307.453 39.0225 307.453 38.5337ZM308.994 37.5456C308.753 37.5456 308.562 37.6306 308.42 37.8006C308.279 37.9635 308.208 38.2079 308.208 38.5337C308.208 38.8525 308.279 39.0969 308.42 39.2669C308.562 39.4298 308.753 39.5112 308.994 39.5112C309.235 39.5112 309.426 39.4298 309.568 39.2669C309.71 39.0969 309.78 38.8525 309.78 38.5337C309.78 38.2079 309.71 37.9635 309.568 37.8006C309.426 37.6306 309.235 37.5456 308.994 37.5456Z" fill="#EB8F63"/>
<path d="M291.595 5.2V4.31812H293.592V12H292.615V5.2H291.595ZM295.253 8.07937C295.253 6.86104 295.451 5.91187 295.848 5.23187C296.245 4.54479 296.939 4.20125 297.931 4.20125C298.915 4.20125 299.606 4.54479 300.002 5.23187C300.399 5.91187 300.597 6.86104 300.597 8.07937C300.597 9.31896 300.399 10.2823 300.002 10.9694C299.606 11.6565 298.915 12 297.931 12C296.939 12 296.245 11.6565 295.848 10.9694C295.451 10.2823 295.253 9.31896 295.253 8.07937ZM299.641 8.07937C299.641 7.46312 299.599 6.9425 299.514 6.5175C299.436 6.08542 299.269 5.73833 299.014 5.47625C298.766 5.21417 298.405 5.08312 297.931 5.08312C297.449 5.08312 297.081 5.21417 296.826 5.47625C296.578 5.73833 296.411 6.08542 296.326 6.5175C296.248 6.9425 296.209 7.46312 296.209 8.07937C296.209 8.71687 296.248 9.25167 296.326 9.68375C296.411 10.1158 296.578 10.4629 296.826 10.725C297.081 10.9871 297.449 11.1181 297.931 11.1181C298.405 11.1181 298.766 10.9871 299.014 10.725C299.269 10.4629 299.436 10.1158 299.514 9.68375C299.599 9.25167 299.641 8.71687 299.641 8.07937ZM301.925 8.07937C301.925 6.86104 302.123 5.91187 302.52 5.23187C302.917 4.54479 303.611 4.20125 304.602 4.20125C305.587 4.20125 306.278 4.54479 306.674 5.23187C307.071 5.91187 307.269 6.86104 307.269 8.07937C307.269 9.31896 307.071 10.2823 306.674 10.9694C306.278 11.6565 305.587 12 304.602 12C303.611 12 302.917 11.6565 302.52 10.9694C302.123 10.2823 301.925 9.31896 301.925 8.07937ZM306.313 8.07937C306.313 7.46312 306.27 6.9425 306.185 6.5175C306.108 6.08542 305.941 5.73833 305.686 5.47625C305.438 5.21417 305.077 5.08312 304.602 5.08312C304.121 5.08312 303.752 5.21417 303.497 5.47625C303.249 5.73833 303.083 6.08542 302.998 6.5175C302.92 6.9425 302.881 7.46312 302.881 8.07937C302.881 8.71687 302.92 9.25167 302.998 9.68375C303.083 10.1158 303.249 10.4629 303.497 10.725C303.752 10.9871 304.121 11.1181 304.602 11.1181C305.077 11.1181 305.438 10.9871 305.686 10.725C305.941 10.4629 306.108 10.1158 306.185 9.68375C306.27 9.25167 306.313 8.71687 306.313 8.07937ZM308.384 6.05C308.384 5.56833 308.529 5.18583 308.82 4.9025C309.11 4.61208 309.482 4.46687 309.935 4.46687C310.389 4.46687 310.761 4.61208 311.051 4.9025C311.341 5.18583 311.487 5.56833 311.487 6.05C311.487 6.53875 311.341 6.92833 311.051 7.21875C310.761 7.50208 310.389 7.64375 309.935 7.64375C309.482 7.64375 309.11 7.50208 308.82 7.21875C308.529 6.92833 308.384 6.53875 308.384 6.05ZM314.589 4.58375L310.286 12H309.33L313.633 4.58375H314.589ZM309.935 5.06187C309.695 5.06187 309.503 5.14687 309.362 5.31687C309.227 5.47979 309.16 5.72417 309.16 6.05C309.16 6.37583 309.227 6.62375 309.362 6.79375C309.503 6.96375 309.695 7.04875 309.935 7.04875C310.176 7.04875 310.367 6.96375 310.509 6.79375C310.651 6.61667 310.722 6.36875 310.722 6.05C310.722 5.72417 310.651 5.47979 310.509 5.31687C310.367 5.14687 310.176 5.06187 309.935 5.06187ZM312.453 10.5337C312.453 10.045 312.599 9.65896 312.889 9.37562C313.18 9.08521 313.551 8.94 314.005 8.94C314.458 8.94 314.826 9.08521 315.11 9.37562C315.4 9.65896 315.545 10.045 315.545 10.5337C315.545 11.0154 315.4 11.4015 315.11 11.6919C314.826 11.9823 314.458 12.1275 314.005 12.1275C313.551 12.1275 313.18 11.9858 312.889 11.7025C312.599 11.4121 312.453 11.0225 312.453 10.5337ZM313.994 9.54562C313.753 9.54562 313.562 9.63062 313.42 9.80062C313.279 9.96354 313.208 10.2079 313.208 10.5337C313.208 10.8525 313.279 11.0969 313.42 11.2669C313.562 11.4298 313.753 11.5112 313.994 11.5112C314.235 11.5112 314.426 11.4298 314.568 11.2669C314.71 11.0969 314.78 10.8525 314.78 10.5337C314.78 10.2079 314.71 9.96354 314.568 9.80062C314.426 9.63062 314.235 9.54562 313.994 9.54562Z" fill="#EB8F63"/>
<path d="M290.925 146.079C290.925 144.861 291.123 143.912 291.52 143.232C291.917 142.545 292.611 142.201 293.602 142.201C294.587 142.201 295.278 142.545 295.674 143.232C296.071 143.912 296.269 144.861 296.269 146.079C296.269 147.319 296.071 148.282 295.674 148.969C295.278 149.656 294.587 150 293.602 150C292.611 150 291.917 149.656 291.52 148.969C291.123 148.282 290.925 147.319 290.925 146.079ZM295.313 146.079C295.313 145.463 295.27 144.942 295.185 144.517C295.108 144.085 294.941 143.738 294.686 143.476C294.438 143.214 294.077 143.083 293.602 143.083C293.121 143.083 292.752 143.214 292.497 143.476C292.249 143.738 292.083 144.085 291.998 144.517C291.92 144.942 291.881 145.463 291.881 146.079C291.881 146.717 291.92 147.252 291.998 147.684C292.083 148.116 292.249 148.463 292.497 148.725C292.752 148.987 293.121 149.118 293.602 149.118C294.077 149.118 294.438 148.987 294.686 148.725C294.941 148.463 295.108 148.116 295.185 147.684C295.27 147.252 295.313 146.717 295.313 146.079ZM297.384 144.05C297.384 143.568 297.529 143.186 297.82 142.902C298.11 142.612 298.482 142.467 298.935 142.467C299.389 142.467 299.761 142.612 300.051 142.902C300.341 143.186 300.487 143.568 300.487 144.05C300.487 144.539 300.341 144.928 300.051 145.219C299.761 145.502 299.389 145.644 298.935 145.644C298.482 145.644 298.11 145.502 297.82 145.219C297.529 144.928 297.384 144.539 297.384 144.05ZM303.589 142.584L299.286 150H298.33L302.633 142.584H303.589ZM298.935 143.062C298.695 143.062 298.503 143.147 298.362 143.317C298.227 143.48 298.16 143.724 298.16 144.05C298.16 144.376 298.227 144.624 298.362 144.794C298.503 144.964 298.695 145.049 298.935 145.049C299.176 145.049 299.367 144.964 299.509 144.794C299.651 144.617 299.722 144.369 299.722 144.05C299.722 143.724 299.651 143.48 299.509 143.317C299.367 143.147 299.176 143.062 298.935 143.062ZM301.453 148.534C301.453 148.045 301.599 147.659 301.889 147.376C302.18 147.085 302.551 146.94 303.005 146.94C303.458 146.94 303.826 147.085 304.11 147.376C304.4 147.659 304.545 148.045 304.545 148.534C304.545 149.015 304.4 149.401 304.11 149.692C303.826 149.982 303.458 150.128 303.005 150.128C302.551 150.128 302.18 149.986 301.889 149.702C301.599 149.412 301.453 149.022 301.453 148.534ZM302.994 147.546C302.753 147.546 302.562 147.631 302.42 147.801C302.279 147.964 302.208 148.208 302.208 148.534C302.208 148.852 302.279 149.097 302.42 149.267C302.562 149.43 302.753 149.511 302.994 149.511C303.235 149.511 303.426 149.43 303.568 149.267C303.71 149.097 303.78 148.852 303.78 148.534C303.78 148.208 303.71 147.964 303.568 147.801C303.426 147.631 303.235 147.546 302.994 147.546Z" fill="#EB8F63"/>
<g opacity="0.3">
<line x1="1" y1="7.4" x2="284" y2="7.4" stroke="#EB8F63" stroke-width="1.2"/>
<line x1="1" y1="35.4" x2="284" y2="35.4" stroke="#EB8F63" stroke-width="1.2"/>
<line x1="1" y1="62.4" x2="284" y2="62.4" stroke="#EB8F63" stroke-width="1.2"/>
<line x1="1" y1="89.4" x2="284" y2="89.4" stroke="#EB8F63" stroke-width="1.2"/>
<line x1="1" y1="117.4" x2="284" y2="117.4" stroke="#EB8F63" stroke-width="1.2"/>
<line x1="1" y1="144.4" x2="284" y2="144.4" stroke="#EB8F63" stroke-width="1.2"/>
</g>
<path d="M10.136 158.636V164.816C10.136 165.504 9.924 166.056 9.5 166.472C9.076 166.88 8.516 167.084 7.82 167.084C7.116 167.084 6.552 166.876 6.128 166.46C5.704 166.036 5.492 165.46 5.492 164.732H6.584C6.592 165.14 6.696 165.472 6.896 165.728C7.104 165.984 7.412 166.112 7.82 166.112C8.228 166.112 8.532 165.992 8.732 165.752C8.932 165.504 9.032 165.192 9.032 164.816V158.636H10.136ZM11.8793 163.688C11.8793 163.016 12.0153 162.428 12.2873 161.924C12.5593 161.412 12.9313 161.016 13.4033 160.736C13.8833 160.456 14.4153 160.316 14.9993 160.316C15.5753 160.316 16.0753 160.44 16.4993 160.688C16.9233 160.936 17.2393 161.248 17.4473 161.624V160.424H18.5513V167H17.4473V165.776C17.2313 166.16 16.9073 166.48 16.4753 166.736C16.0513 166.984 15.5553 167.108 14.9873 167.108C14.4033 167.108 13.8753 166.964 13.4033 166.676C12.9313 166.388 12.5593 165.984 12.2873 165.464C12.0153 164.944 11.8793 164.352 11.8793 163.688ZM17.4473 163.7C17.4473 163.204 17.3473 162.772 17.1473 162.404C16.9473 162.036 16.6753 161.756 16.3313 161.564C15.9953 161.364 15.6233 161.264 15.2153 161.264C14.8073 161.264 14.4353 161.36 14.0993 161.552C13.7633 161.744 13.4953 162.024 13.2953 162.392C13.0953 162.76 12.9953 163.192 12.9953 163.688C12.9953 164.192 13.0953 164.632 13.2953 165.008C13.4953 165.376 13.7633 165.66 14.0993 165.86C14.4353 166.052 14.8073 166.148 15.2153 166.148C15.6233 166.148 15.9953 166.052 16.3313 165.86C16.6753 165.66 16.9473 165.376 17.1473 165.008C17.3473 164.632 17.4473 164.196 17.4473 163.7ZM23.6007 160.304C24.4007 160.304 25.0487 160.548 25.5447 161.036C26.0407 161.516 26.2887 162.212 26.2887 163.124V167H25.2087V163.28C25.2087 162.624 25.0447 162.124 24.7167 161.78C24.3887 161.428 23.9407 161.252 23.3727 161.252C22.7967 161.252 22.3367 161.432 21.9927 161.792C21.6567 162.152 21.4887 162.676 21.4887 163.364V167H20.3967V160.424H21.4887V161.36C21.7047 161.024 21.9967 160.764 22.3647 160.58C22.7407 160.396 23.1527 160.304 23.6007 160.304Z" fill="#EB8F63"/>
<path d="M53.652 158.636V159.524H50.016V162.344H52.968V163.232H50.016V167H48.924V158.636H53.652ZM60.9709 163.46C60.9709 163.668 60.9589 163.888 60.9349 164.12H55.6789C55.7189 164.768 55.9389 165.276 56.3389 165.644C56.7469 166.004 57.2389 166.184 57.8149 166.184C58.2869 166.184 58.6789 166.076 58.9909 165.86C59.3109 165.636 59.5349 165.34 59.6629 164.972H60.8389C60.6629 165.604 60.3109 166.12 59.7829 166.52C59.2549 166.912 58.5989 167.108 57.8149 167.108C57.1909 167.108 56.6309 166.968 56.1349 166.688C55.6469 166.408 55.2629 166.012 54.9829 165.5C54.7029 164.98 54.5629 164.38 54.5629 163.7C54.5629 163.02 54.6989 162.424 54.9709 161.912C55.2429 161.4 55.6229 161.008 56.1109 160.736C56.6069 160.456 57.1749 160.316 57.8149 160.316C58.4389 160.316 58.9909 160.452 59.4709 160.724C59.9509 160.996 60.3189 161.372 60.5749 161.852C60.8389 162.324 60.9709 162.86 60.9709 163.46ZM59.8429 163.232C59.8429 162.816 59.7509 162.46 59.5669 162.164C59.3829 161.86 59.1309 161.632 58.8109 161.48C58.4989 161.32 58.1509 161.24 57.7669 161.24C57.2149 161.24 56.7429 161.416 56.3509 161.768C55.9669 162.12 55.7469 162.608 55.6909 163.232H59.8429ZM63.5043 161.648C63.7283 161.256 64.0563 160.936 64.4883 160.688C64.9203 160.44 65.4123 160.316 65.9643 160.316C66.5563 160.316 67.0883 160.456 67.5603 160.736C68.0323 161.016 68.4043 161.412 68.6763 161.924C68.9483 162.428 69.0843 163.016 69.0843 163.688C69.0843 164.352 68.9483 164.944 68.6763 165.464C68.4043 165.984 68.0283 166.388 67.5483 166.676C67.0763 166.964 66.5483 167.108 65.9643 167.108C65.3963 167.108 64.8963 166.984 64.4643 166.736C64.0403 166.488 63.7203 166.172 63.5043 165.788V167H62.4123V158.12H63.5043V161.648ZM67.9683 163.688C67.9683 163.192 67.8683 162.76 67.6683 162.392C67.4683 162.024 67.1963 161.744 66.8523 161.552C66.5163 161.36 66.1443 161.264 65.7363 161.264C65.3363 161.264 64.9643 161.364 64.6203 161.564C64.2843 161.756 64.0123 162.04 63.8043 162.416C63.6043 162.784 63.5043 163.212 63.5043 163.7C63.5043 164.196 63.6043 164.632 63.8043 165.008C64.0123 165.376 64.2843 165.66 64.6203 165.86C64.9643 166.052 65.3363 166.148 65.7363 166.148C66.1443 166.148 66.5163 166.052 66.8523 165.86C67.1963 165.66 67.4683 165.376 67.6683 165.008C67.8683 164.632 67.9683 164.192 67.9683 163.688Z" fill="#EB8F63"/>
<path d="M99.408 158.696V167H98.316V160.808L95.556 167H94.788L92.016 160.796V167H90.924V158.696H92.1L95.172 165.56L98.244 158.696H99.408ZM100.852 163.688C100.852 163.016 100.988 162.428 101.26 161.924C101.532 161.412 101.904 161.016 102.376 160.736C102.856 160.456 103.388 160.316 103.972 160.316C104.548 160.316 105.048 160.44 105.472 160.688C105.896 160.936 106.212 161.248 106.42 161.624V160.424H107.524V167H106.42V165.776C106.204 166.16 105.88 166.48 105.448 166.736C105.024 166.984 104.528 167.108 103.96 167.108C103.376 167.108 102.848 166.964 102.376 166.676C101.904 166.388 101.532 165.984 101.26 165.464C100.988 164.944 100.852 164.352 100.852 163.688ZM106.42 163.7C106.42 163.204 106.32 162.772 106.12 162.404C105.92 162.036 105.648 161.756 105.304 161.564C104.968 161.364 104.596 161.264 104.188 161.264C103.78 161.264 103.408 161.36 103.072 161.552C102.736 161.744 102.468 162.024 102.268 162.392C102.068 162.76 101.968 163.192 101.968 163.688C101.968 164.192 102.068 164.632 102.268 165.008C102.468 165.376 102.736 165.66 103.072 165.86C103.408 166.052 103.78 166.148 104.188 166.148C104.596 166.148 104.968 166.052 105.304 165.86C105.648 165.66 105.92 165.376 106.12 165.008C106.32 164.632 106.42 164.196 106.42 163.7ZM110.461 161.492C110.653 161.116 110.925 160.824 111.277 160.616C111.637 160.408 112.073 160.304 112.585 160.304V161.432H112.297C111.073 161.432 110.461 162.096 110.461 163.424V167H109.369V160.424H110.461V161.492Z" fill="#EB8F63"/>
<path d="M138.868 165.14H135.22L134.548 167H133.396L136.42 158.684H137.68L140.692 167H139.54L138.868 165.14ZM138.556 164.252L137.044 160.028L135.532 164.252H138.556ZM143.102 161.636C143.318 161.26 143.638 160.948 144.062 160.7C144.494 160.444 144.994 160.316 145.562 160.316C146.146 160.316 146.674 160.456 147.146 160.736C147.626 161.016 148.002 161.412 148.274 161.924C148.546 162.428 148.682 163.016 148.682 163.688C148.682 164.352 148.546 164.944 148.274 165.464C148.002 165.984 147.626 166.388 147.146 166.676C146.674 166.964 146.146 167.108 145.562 167.108C145.002 167.108 144.506 166.984 144.074 166.736C143.65 166.48 143.326 166.164 143.102 165.788V170.12H142.01V160.424H143.102V161.636ZM147.566 163.688C147.566 163.192 147.466 162.76 147.266 162.392C147.066 162.024 146.794 161.744 146.45 161.552C146.114 161.36 145.742 161.264 145.334 161.264C144.934 161.264 144.562 161.364 144.218 161.564C143.882 161.756 143.61 162.04 143.402 162.416C143.202 162.784 143.102 163.212 143.102 163.7C143.102 164.196 143.202 164.632 143.402 165.008C143.61 165.376 143.882 165.66 144.218 165.86C144.562 166.052 144.934 166.148 145.334 166.148C145.742 166.148 146.114 166.052 146.45 165.86C146.794 165.66 147.066 165.376 147.266 165.008C147.466 164.632 147.566 164.192 147.566 163.688ZM151.211 161.492C151.403 161.116 151.675 160.824 152.027 160.616C152.387 160.408 152.823 160.304 153.335 160.304V161.432H153.047C151.823 161.432 151.211 162.096 151.211 163.424V167H150.119V160.424H151.211V161.492Z" fill="#EB8F63"/>
<path d="M184.284 158.576V167H182.232V161.948L180.348 167H178.692L176.796 161.936V167H174.744V158.576H177.168L179.532 164.408L181.872 158.576H184.284ZM185.352 163.64C185.352 162.952 185.48 162.348 185.736 161.828C186 161.308 186.356 160.908 186.804 160.628C187.252 160.348 187.752 160.208 188.304 160.208C188.776 160.208 189.188 160.304 189.54 160.496C189.9 160.688 190.176 160.94 190.368 161.252V160.304H192.42V167H190.368V166.052C190.168 166.364 189.888 166.616 189.528 166.808C189.176 167 188.764 167.096 188.292 167.096C187.748 167.096 187.252 166.956 186.804 166.676C186.356 166.388 186 165.984 185.736 165.464C185.48 164.936 185.352 164.328 185.352 163.64ZM190.368 163.652C190.368 163.14 190.224 162.736 189.936 162.44C189.656 162.144 189.312 161.996 188.904 161.996C188.496 161.996 188.148 162.144 187.86 162.44C187.58 162.728 187.44 163.128 187.44 163.64C187.44 164.152 187.58 164.56 187.86 164.864C188.148 165.16 188.496 165.308 188.904 165.308C189.312 165.308 189.656 165.16 189.936 164.864C190.224 164.568 190.368 164.164 190.368 163.652ZM200.744 160.304L196.544 170.18H194.336L195.872 166.772L193.148 160.304H195.44L196.988 164.492L198.524 160.304H200.744Z" fill="url(#paint1_linear_398_14233)"/>
<path d="M226.136 158.636V164.816C226.136 165.504 225.924 166.056 225.5 166.472C225.076 166.88 224.516 167.084 223.82 167.084C223.116 167.084 222.552 166.876 222.128 166.46C221.704 166.036 221.492 165.46 221.492 164.732H222.584C222.592 165.14 222.696 165.472 222.896 165.728C223.104 165.984 223.412 166.112 223.82 166.112C224.228 166.112 224.532 165.992 224.732 165.752C224.932 165.504 225.032 165.192 225.032 164.816V158.636H226.136ZM234.119 160.424V167H233.027V166.028C232.819 166.364 232.527 166.628 232.151 166.82C231.783 167.004 231.375 167.096 230.927 167.096C230.415 167.096 229.955 166.992 229.547 166.784C229.139 166.568 228.815 166.248 228.575 165.824C228.343 165.4 228.227 164.884 228.227 164.276V160.424H229.307V164.132C229.307 164.78 229.471 165.28 229.799 165.632C230.127 165.976 230.575 166.148 231.143 166.148C231.727 166.148 232.187 165.968 232.523 165.608C232.859 165.248 233.027 164.724 233.027 164.036V160.424H234.119ZM239.167 160.304C239.967 160.304 240.615 160.548 241.111 161.036C241.607 161.516 241.855 162.212 241.855 163.124V167H240.775V163.28C240.775 162.624 240.611 162.124 240.283 161.78C239.955 161.428 239.507 161.252 238.939 161.252C238.363 161.252 237.903 161.432 237.559 161.792C237.223 162.152 237.055 162.676 237.055 163.364V167H235.963V160.424H237.055V161.36C237.271 161.024 237.563 160.764 237.931 160.58C238.307 160.396 238.719 160.304 239.167 160.304Z" fill="#EB8F63"/>
<path d="M270.136 158.636V164.816C270.136 165.504 269.924 166.056 269.5 166.472C269.076 166.88 268.516 167.084 267.82 167.084C267.116 167.084 266.552 166.876 266.128 166.46C265.704 166.036 265.492 165.46 265.492 164.732H266.584C266.592 165.14 266.696 165.472 266.896 165.728C267.104 165.984 267.412 166.112 267.82 166.112C268.228 166.112 268.532 165.992 268.732 165.752C268.932 165.504 269.032 165.192 269.032 164.816V158.636H270.136ZM278.119 160.424V167H277.027V166.028C276.819 166.364 276.527 166.628 276.151 166.82C275.783 167.004 275.375 167.096 274.927 167.096C274.415 167.096 273.955 166.992 273.547 166.784C273.139 166.568 272.815 166.248 272.575 165.824C272.343 165.4 272.227 164.884 272.227 164.276V160.424H273.307V164.132C273.307 164.78 273.471 165.28 273.799 165.632C274.127 165.976 274.575 166.148 275.143 166.148C275.727 166.148 276.187 165.968 276.523 165.608C276.859 165.248 277.027 164.724 277.027 164.036V160.424H278.119ZM281.055 158.12V167H279.963V158.12H281.055Z" fill="#EB8F63"/>
<g opacity="0.15">
<path d="M1.5 117.5C20.3333 124 63.8 133.1 87 117.5C116 98 132.5 58 160 60C187.5 62 193.495 79.2944 207 95.5C219.5 110.5 238.975 109.247 258.5 103.5C269.071 100.388 282.2 95.1 283 89.5" stroke="#FF0000" stroke-width="1.5"/>
</g>
<path d="M1 90.1911C11 68.8578 38.9966 36.2355 73 40.1911C108.239 44.2904 96.0275 109.159 131.5 109.691C164.368 110.184 192.5 51.6911 192.5 51.6911C192.5 51.6911 213.044 11.0807 237 9.19109C257.911 7.54171 274.286 16.6001 284 35.1911" stroke="#EB8F63" stroke-width="2"/>
<circle cx="243" cy="9" r="2.5" fill="#382666"/>
<circle cx="243" cy="9" r="2.5" fill="black" fill-opacity="0.2"/>
<circle cx="243" cy="9" r="2.5" fill="black" fill-opacity="0.2"/>
<circle cx="243" cy="9" r="2.5" fill="black" fill-opacity="0.2"/>
<circle cx="243" cy="9" r="2.5" fill="black" fill-opacity="0.2"/>
<circle cx="243" cy="9" r="2.5" fill="black" fill-opacity="0.2"/>
<circle cx="243" cy="9" r="2.5" fill="black" fill-opacity="0.2"/>
<circle cx="243" cy="9" r="2.5" fill="black" fill-opacity="0.2"/>
<circle cx="243" cy="9" r="2.5" fill="black" fill-opacity="0.2"/>
<circle cx="243" cy="9" r="2.5" fill="black" fill-opacity="0.2"/>
<circle cx="243" cy="9" r="2.5" fill="black" fill-opacity="0.2"/>
<circle cx="243" cy="9" r="2.5" fill="black" fill-opacity="0.2"/>
<circle cx="243" cy="9" r="2.5" fill="black" fill-opacity="0.2"/>
<circle cx="243" cy="9" r="2.5" fill="black" fill-opacity="0.2"/>
<circle cx="243" cy="9" r="2.5" fill="black" fill-opacity="0.2"/>
<circle cx="243" cy="9" r="2.5" fill="white" fill-opacity="0.2"/>
<circle cx="243" cy="9" r="2.5" fill="white"/>
<circle cx="243" cy="9" r="2.5" fill="white"/>
<circle cx="243" cy="9" r="2.5" stroke="#EB8F63"/>
<circle cx="137" cy="109" r="2.5" fill="#382666"/>
<circle cx="137" cy="109" r="2.5" fill="black" fill-opacity="0.2"/>
<circle cx="137" cy="109" r="2.5" fill="black" fill-opacity="0.2"/>
<circle cx="137" cy="109" r="2.5" fill="black" fill-opacity="0.2"/>
<circle cx="137" cy="109" r="2.5" fill="black" fill-opacity="0.2"/>
<circle cx="137" cy="109" r="2.5" fill="black" fill-opacity="0.2"/>
<circle cx="137" cy="109" r="2.5" fill="black" fill-opacity="0.2"/>
<circle cx="137" cy="109" r="2.5" fill="black" fill-opacity="0.2"/>
<circle cx="137" cy="109" r="2.5" fill="black" fill-opacity="0.2"/>
<circle cx="137" cy="109" r="2.5" fill="black" fill-opacity="0.2"/>
<circle cx="137" cy="109" r="2.5" fill="black" fill-opacity="0.2"/>
<circle cx="137" cy="109" r="2.5" fill="black" fill-opacity="0.2"/>
<circle cx="137" cy="109" r="2.5" fill="black" fill-opacity="0.2"/>
<circle cx="137" cy="109" r="2.5" fill="black" fill-opacity="0.2"/>
<circle cx="137" cy="109" r="2.5" fill="black" fill-opacity="0.2"/>
<circle cx="137" cy="109" r="2.5" fill="white" fill-opacity="0.2"/>
<circle cx="137" cy="109" r="2.5" fill="white"/>
<circle cx="137" cy="109" r="2.5" fill="white"/>
<circle cx="137" cy="109" r="2.5" stroke="#EB8F63"/>
<circle cx="77" cy="41" r="2.5" fill="#382666"/>
<circle cx="77" cy="41" r="2.5" fill="black" fill-opacity="0.2"/>
<circle cx="77" cy="41" r="2.5" fill="black" fill-opacity="0.2"/>
<circle cx="77" cy="41" r="2.5" fill="black" fill-opacity="0.2"/>
<circle cx="77" cy="41" r="2.5" fill="black" fill-opacity="0.2"/>
<circle cx="77" cy="41" r="2.5" fill="black" fill-opacity="0.2"/>
<circle cx="77" cy="41" r="2.5" fill="black" fill-opacity="0.2"/>
<circle cx="77" cy="41" r="2.5" fill="black" fill-opacity="0.2"/>
<circle cx="77" cy="41" r="2.5" fill="black" fill-opacity="0.2"/>
<circle cx="77" cy="41" r="2.5" fill="black" fill-opacity="0.2"/>
<circle cx="77" cy="41" r="2.5" fill="black" fill-opacity="0.2"/>
<circle cx="77" cy="41" r="2.5" fill="black" fill-opacity="0.2"/>
<circle cx="77" cy="41" r="2.5" fill="black" fill-opacity="0.2"/>
<circle cx="77" cy="41" r="2.5" fill="black" fill-opacity="0.2"/>
<circle cx="77" cy="41" r="2.5" fill="black" fill-opacity="0.2"/>
<circle cx="77" cy="41" r="2.5" fill="white" fill-opacity="0.2"/>
<circle cx="77" cy="41" r="2.5" fill="white"/>
<circle cx="77" cy="41" r="2.5" fill="white"/>
<circle cx="77" cy="41" r="2.5" stroke="#EB8F63"/>
<defs>
<linearGradient id="paint0_linear_398_14233" x1="311" y1="71" x2="280.539" y2="67.6117" gradientUnits="userSpaceOnUse">
<stop stop-color="#C58BF2"/>
<stop offset="1" stop-color="#EEA4CE"/>
</linearGradient>
<linearGradient id="paint1_linear_398_14233" x1="201" y1="172" x2="165.28" y2="167.854" gradientUnits="userSpaceOnUse">
<stop stop-color="#C58BF2"/>
<stop offset="1" stop-color="#EEA4CE"/>
</linearGradient>
</defs>
</svg>
